<svg id="svg" version="1.1" xmlns="http://www.w3.org/2000/svg" xmlns:xlink="http://www.w3.org/1999/xlink" width="400" height="400" viewBox="0, 0, 400,400"><g id="svgg"><path id="path0" d="M0.000 200.000 L 0.000 400.000 200.000 400.000 L 400.000 400.000 400.000 200.000 L 400.000 0.000 200.000 0.000 L 0.000 0.000 0.000 200.000 M392.800 199.996 L 392.800 380.792 373.500 380.896 C 362.885 380.953,276.125 380.955,180.700 380.899 L 7.200 380.798 7.200 199.999 L 7.200 19.200 200.000 19.200 L 392.800 19.200 392.800 199.996 " stroke="none" fill="#e9e9e9" fill-rule="evenodd"></path><path id="path1" d="M81.000 95.801 C 51.834 98.861,35.112 115.641,31.773 145.200 C 30.940 152.572,30.942 247.952,31.775 255.017 C 35.098 283.196,52.842 301.630,79.136 304.221 L 81.921 304.496 113.765 277.964 L 145.609 251.432 145.505 236.216 L 145.400 221.000 123.600 221.000 L 101.800 221.000 101.590 239.600 C 101.358 260.143,101.339 260.306,98.696 264.260 C 93.919 271.409,81.689 270.841,77.644 263.283 C 75.242 258.795,75.200 257.702,75.200 200.061 C 75.200 142.223,75.206 142.044,77.449 136.935 C 80.149 130.783,91.574 128.907,97.040 133.719 C 101.188 137.370,101.600 139.541,101.600 157.758 L 101.600 172.400 123.600 172.400 L 145.600 172.400 145.600 159.265 C 145.600 141.174,144.501 134.368,139.996 124.561 C 130.541 103.979,107.963 92.972,81.000 95.801 M183.422 99.300 C 183.337 99.575,183.174 100.430,183.059 101.200 C 182.944 101.970,182.561 104.220,182.207 106.200 C 181.854 108.180,181.295 111.330,180.965 113.200 C 180.635 115.070,180.103 118.085,179.783 119.900 C 179.462 121.715,178.938 124.685,178.617 126.500 C 178.297 128.315,177.757 131.375,177.417 133.300 C 177.078 135.225,176.530 138.330,176.200 140.200 C 175.870 142.070,175.330 145.130,175.000 147.000 C 174.670 148.870,174.130 151.930,173.800 153.800 C 173.470 155.670,172.930 158.730,172.600 160.600 C 172.270 162.470,171.730 165.530,171.400 167.400 C 171.070 169.270,170.530 172.330,170.200 174.200 C 169.870 176.070,169.322 179.175,168.983 181.100 C 168.643 183.025,168.103 186.085,167.783 187.900 C 167.462 189.715,166.922 192.775,166.583 194.700 C 165.953 198.271,165.016 203.548,163.618 211.400 C 162.878 215.556,162.522 217.566,161.000 226.200 C 160.651 228.180,160.015 231.780,159.587 234.200 C 159.159 236.620,158.806 239.007,158.804 239.504 C 158.801 240.228,164.070 236.014,185.219 218.384 C 199.750 206.271,211.880 196.267,212.175 196.154 C 212.660 195.968,214.957 197.844,227.200 208.424 C 232.180 212.727,243.140 222.181,255.200 232.575 C 261.030 237.600,266.204 242.077,266.698 242.524 C 268.311 243.983,268.320 243.357,266.799 235.600 C 266.605 234.610,266.059 231.550,265.587 228.800 C 265.114 226.050,264.381 221.910,263.957 219.600 C 263.533 217.290,262.994 214.320,262.758 213.000 C 262.523 211.680,262.163 209.700,261.959 208.600 C 261.755 207.500,261.052 203.540,260.396 199.800 C 259.081 192.295,258.510 189.106,258.000 186.400 C 257.571 184.126,257.017 181.029,255.994 175.200 C 255.550 172.670,254.828 168.620,254.389 166.200 C 253.949 163.780,253.397 160.720,253.160 159.400 C 252.924 158.080,252.563 156.100,252.359 155.000 C 252.155 153.900,251.452 149.940,250.796 146.200 C 249.481 138.695,248.910 135.506,248.400 132.800 C 247.940 130.362,247.355 127.087,246.400 121.600 C 245.959 119.070,245.404 115.920,245.165 114.600 C 244.298 109.810,243.923 107.766,243.589 106.000 C 243.401 105.010,243.024 102.985,242.751 101.500 L 242.253 98.800 212.914 98.800 C 189.791 98.800,183.542 98.906,183.422 99.300 M266.800 118.000 L 266.800 137.200 280.567 137.200 C 288.139 137.200,294.619 137.309,294.967 137.443 C 295.541 137.663,295.600 143.765,295.600 202.482 L 295.600 267.279 296.900 268.495 C 298.059 269.579,300.746 271.916,312.225 281.818 C 313.999 283.348,318.049 286.845,321.225 289.589 C 324.401 292.332,328.840 296.166,331.089 298.109 L 335.178 301.641 337.489 301.520 L 339.800 301.400 339.901 219.623 C 339.981 154.810,340.105 137.780,340.501 137.529 C 340.775 137.355,347.255 137.209,354.900 137.206 L 368.800 137.200 368.800 118.000 L 368.800 98.800 317.800 98.800 L 266.800 98.800 266.800 118.000 M213.935 134.700 C 214.207 137.285,214.597 140.840,214.800 142.600 C 215.003 144.360,215.365 147.690,215.603 150.000 C 215.841 152.310,216.210 155.820,216.423 157.800 C 217.191 164.966,217.607 168.871,218.000 172.600 C 218.840 180.581,219.206 183.922,219.636 187.551 C 220.193 192.249,220.615 191.986,212.514 191.994 C 204.914 192.001,205.133 192.134,205.629 187.800 C 205.963 184.885,206.512 180.206,207.203 174.400 C 207.426 172.530,207.790 169.380,208.014 167.400 C 208.906 159.504,209.209 156.859,209.597 153.600 C 209.819 151.730,210.181 148.670,210.400 146.800 C 210.619 144.930,210.985 141.870,211.212 140.000 C 211.440 138.130,211.734 135.340,211.867 133.800 C 212.091 131.204,212.504 130.000,213.169 130.000 C 213.318 130.000,213.663 132.115,213.935 134.700 M195.795 219.274 C 186.778 226.795,161.098 248.211,138.730 266.864 C 116.361 285.518,97.946 300.964,97.806 301.190 C 97.633 301.470,133.407 301.600,210.376 301.600 C 272.429 301.600,323.188 301.465,323.173 301.300 C 323.158 301.135,320.707 298.930,317.726 296.400 C 314.745 293.870,311.281 290.900,310.028 289.800 C 308.775 288.700,304.710 285.190,300.995 282.000 C 297.280 278.810,293.322 275.390,292.200 274.400 C 291.078 273.410,287.199 270.053,283.580 266.939 C 268.272 253.770,237.200 226.960,234.800 224.851 C 233.370 223.594,228.347 219.243,223.638 215.183 C 218.929 211.122,214.519 207.312,213.838 206.716 C 213.157 206.120,212.508 205.625,212.395 205.616 C 212.283 205.607,204.813 211.753,195.795 219.274 M365.600 331.352 C 348.211 337.403,347.946 361.574,365.200 367.892 C 381.365 373.811,396.621 356.671,389.014 341.136 C 384.839 332.609,374.456 328.270,365.600 331.352 M378.448 334.854 C 390.955 340.718,391.118 358.426,378.720 364.343 C 363.514 371.600,348.621 353.594,358.593 340.010 C 362.935 334.094,371.876 331.773,378.448 334.854 M364.181 338.106 C 364.074 338.384,364.035 343.559,364.093 349.606 L 364.200 360.600 365.500 360.725 L 366.800 360.851 366.800 356.505 C 366.800 351.809,367.032 351.200,368.825 351.200 C 370.110 351.200,370.901 351.960,374.800 356.945 C 377.664 360.606,377.870 360.781,379.349 360.790 C 380.528 360.798,380.806 360.680,380.513 360.300 C 380.301 360.025,378.749 358.069,377.064 355.954 C 373.576 351.576,373.508 351.365,375.342 350.598 C 380.552 348.422,380.887 340.654,375.869 338.375 C 373.806 337.439,364.519 337.224,364.181 338.106 M373.586 339.723 C 379.825 341.871,376.828 349.566,369.743 349.591 C 366.767 349.602,366.800 349.660,366.800 344.400 C 366.800 342.236,366.909 340.181,367.043 339.833 C 367.341 339.054,371.445 338.985,373.586 339.723 " stroke="none" fill="#1c1c14" fill-rule="evenodd"></path><path id="path2" d="M7.200 200.000 L 7.200 380.800 200.000 380.800 L 392.800 380.800 392.800 200.000 L 392.800 19.200 200.000 19.200 L 7.200 19.200 7.200 200.000 M99.400 95.369 C 126.447 99.535,142.709 116.439,146.004 143.816 C 146.682 149.451,147.019 171.243,146.445 172.316 L 145.972 173.200 123.810 173.200 C 106.519 173.200,101.576 173.090,101.324 172.700 C 101.146 172.425,100.906 165.180,100.791 156.600 C 100.561 139.478,100.477 138.874,97.833 135.407 C 94.158 130.589,83.513 130.503,79.443 135.258 C 76.038 139.236,76.022 139.535,76.018 200.000 C 76.014 260.258,76.014 260.273,79.589 264.786 C 83.265 269.427,92.559 269.780,96.895 265.443 C 100.419 261.919,100.800 259.319,100.800 238.778 C 100.800 229.366,100.909 221.381,101.043 221.033 C 101.260 220.466,103.642 220.400,123.835 220.400 L 146.385 220.400 146.634 221.392 C 146.771 221.938,146.819 228.865,146.741 236.786 L 146.600 251.187 145.200 252.558 C 144.430 253.312,129.940 265.483,113.000 279.603 L 82.200 305.278 79.600 305.067 C 54.716 303.048,36.256 285.466,31.517 259.271 L 30.600 254.200 30.600 200.400 C 30.600 143.533,30.579 144.252,32.456 136.000 C 37.391 114.306,53.170 99.407,75.000 95.827 C 76.980 95.503,79.050 95.163,79.600 95.073 C 82.184 94.649,96.073 94.856,99.400 95.369 M242.728 98.514 C 242.963 98.796,243.535 101.181,244.000 103.814 C 244.465 106.446,245.005 109.500,245.200 110.600 C 245.395 111.700,245.841 114.220,246.191 116.200 C 247.229 122.069,249.160 132.848,249.559 135.000 C 250.358 139.305,250.865 142.131,252.396 150.800 C 253.270 155.750,254.153 160.700,254.358 161.800 C 255.105 165.812,255.638 168.776,257.200 177.600 C 258.076 182.550,258.977 187.590,259.201 188.800 C 259.425 190.010,260.505 196.040,261.600 202.200 C 262.695 208.360,263.775 214.390,264.000 215.600 C 264.520 218.404,268.236 239.213,268.642 241.600 C 268.931 243.298,268.909 244.409,268.578 244.751 C 268.380 244.955,268.110 244.726,238.594 219.232 C 224.310 206.894,212.528 196.802,212.412 196.805 C 212.295 196.807,200.320 206.725,185.800 218.844 C 171.280 230.963,159.096 241.041,158.724 241.240 C 157.397 241.951,157.361 242.343,159.948 227.800 C 160.378 225.380,161.286 220.250,161.964 216.400 C 162.643 212.550,163.739 206.340,164.400 202.600 C 165.061 198.860,166.157 192.650,166.836 188.800 C 167.514 184.950,168.406 179.910,168.818 177.600 C 169.229 175.290,169.844 171.825,170.183 169.900 C 170.522 167.975,171.070 164.870,171.400 163.000 C 171.730 161.130,172.270 158.070,172.600 156.200 C 172.930 154.330,173.470 151.270,173.800 149.400 C 174.130 147.530,174.670 144.470,175.000 142.600 C 175.330 140.730,175.878 137.625,176.217 135.700 C 176.556 133.775,177.171 130.310,177.582 128.000 C 177.994 125.690,178.885 120.650,179.564 116.800 C 180.242 112.950,181.233 107.332,181.766 104.315 C 182.299 101.298,182.850 98.643,182.991 98.415 C 183.402 97.749,242.174 97.846,242.728 98.514 M368.967 98.243 C 369.933 98.613,369.933 137.387,368.967 137.757 C 368.619 137.891,362.050 138.000,354.368 138.000 L 340.402 138.000 340.301 220.100 L 340.200 302.200 337.590 302.316 L 334.980 302.432 316.590 286.576 C 306.476 277.856,297.435 269.981,296.500 269.077 L 294.800 267.433 294.800 202.722 L 294.800 138.010 280.500 137.905 L 266.200 137.800 266.096 118.400 C 266.039 107.730,266.078 98.775,266.183 98.500 C 266.385 97.973,367.604 97.719,368.967 98.243 M212.665 134.400 C 212.521 135.170,212.121 138.320,211.776 141.400 C 211.163 146.880,210.810 149.939,209.999 156.800 C 209.778 158.670,209.238 163.350,208.800 167.200 C 208.362 171.050,207.822 175.730,207.601 177.600 C 207.380 179.470,207.013 182.620,206.786 184.600 C 206.559 186.580,206.266 188.880,206.134 189.710 L 205.895 191.220 212.447 191.110 L 219.000 191.000 218.889 189.000 C 218.828 187.900,218.611 185.470,218.407 183.600 C 218.203 181.730,217.847 178.400,217.617 176.200 C 217.386 174.000,216.839 168.870,216.402 164.800 C 214.946 151.236,214.838 150.223,214.398 146.000 C 213.284 135.285,212.936 132.955,212.665 134.400 M222.235 213.042 C 227.496 217.575,235.683 224.640,240.429 228.742 C 245.175 232.844,266.010 250.835,286.729 268.722 C 307.448 286.609,324.400 301.504,324.400 301.822 C 324.400 302.325,309.514 302.400,210.371 302.400 C 103.274 302.400,96.349 302.359,96.472 301.720 C 96.599 301.063,211.687 204.800,212.345 204.800 C 212.524 204.800,216.975 208.509,222.235 213.042 M376.583 330.212 C 391.765 334.167,396.851 352.823,385.769 363.905 C 373.124 376.550,351.633 367.512,351.605 349.538 C 351.585 336.699,364.154 326.975,376.583 330.212 M368.200 334.537 C 358.768 336.970,353.668 346.929,357.345 355.730 C 360.919 364.283,371.425 367.779,379.571 363.127 C 381.489 362.031,381.628 361.676,380.046 361.908 C 378.266 362.169,377.482 361.525,373.573 356.587 C 370.424 352.610,369.785 352.000,368.770 352.000 L 367.600 352.000 367.600 356.609 C 367.600 361.099,367.575 361.229,366.629 361.659 C 365.295 362.267,363.747 361.802,363.453 360.704 C 363.138 359.528,363.137 338.876,363.452 337.700 C 363.725 336.681,371.738 336.343,374.888 337.218 C 381.535 339.064,382.085 348.810,375.680 351.246 L 374.715 351.613 375.841 353.106 C 376.461 353.928,377.998 355.914,379.257 357.521 C 380.517 359.127,381.625 360.657,381.721 360.921 C 382.032 361.779,384.402 359.108,385.651 356.493 C 391.205 344.859,380.482 331.368,368.200 334.537 M367.600 344.396 L 367.600 348.907 370.437 348.705 C 374.761 348.395,376.496 346.568,375.831 343.025 C 375.463 341.065,374.252 340.388,370.626 340.113 L 367.600 339.885 367.600 344.396 " stroke="none" fill="#f3eb2c" fill-rule="evenodd"></path><path id="path3" d="M84.522 95.099 C 86.899 95.170,90.679 95.169,92.922 95.098 C 95.165 95.027,93.220 94.969,88.600 94.969 C 83.980 94.970,82.145 95.028,84.522 95.099 M76.200 95.600 C 74.839 95.844,74.779 95.892,75.800 95.920 C 76.460 95.939,77.720 95.805,78.600 95.623 C 80.693 95.190,78.602 95.170,76.200 95.600 M98.200 95.600 C 98.860 95.768,100.120 95.904,101.000 95.903 L 102.600 95.900 100.800 95.580 C 98.357 95.145,96.470 95.160,98.200 95.600 M70.186 96.805 C 68.638 97.222,66.928 97.755,66.386 97.990 L 65.400 98.417 66.400 98.246 C 66.950 98.152,68.480 97.776,69.800 97.410 C 71.120 97.044,72.740 96.596,73.400 96.413 C 74.160 96.203,74.307 96.076,73.800 96.065 C 73.360 96.056,71.734 96.389,70.186 96.805 M103.400 96.381 C 104.168 96.729,106.310 96.956,105.967 96.653 C 105.875 96.572,105.080 96.396,104.200 96.262 C 103.085 96.093,102.842 96.129,103.400 96.381 M107.000 97.178 C 108.843 97.924,113.288 99.246,113.440 99.093 C 113.638 98.895,107.347 96.788,106.672 96.827 C 106.413 96.842,106.560 97.000,107.000 97.178 M182.774 99.068 C 182.551 99.656,182.435 100.421,182.518 100.768 C 182.601 101.116,182.808 100.725,182.979 99.900 L 183.289 98.400 212.857 98.400 L 242.426 98.400 242.788 99.300 C 243.009 99.852,243.159 99.960,243.175 99.580 C 243.239 97.999,243.265 98.000,212.710 98.000 L 183.180 98.000 182.774 99.068 M266.183 98.500 C 266.078 98.775,266.039 107.730,266.096 118.400 L 266.200 137.800 280.500 137.905 L 294.800 138.010 294.800 202.771 L 294.800 267.531 298.092 270.540 C 299.902 272.195,301.462 273.471,301.559 273.375 C 301.655 273.279,301.658 273.150,301.567 273.089 C 301.475 273.027,300.005 271.751,298.300 270.253 L 295.200 267.528 295.200 202.564 L 295.200 137.600 280.800 137.600 L 266.400 137.600 266.400 117.998 L 266.400 98.397 317.700 98.498 L 369.000 98.600 369.000 118.000 L 369.000 137.400 354.600 137.600 L 340.200 137.800 340.000 219.800 L 339.800 301.800 337.654 301.923 C 335.361 302.053,334.039 301.421,331.400 298.932 C 330.740 298.309,329.030 296.811,327.600 295.602 C 326.170 294.394,324.910 293.307,324.800 293.186 C 324.690 293.066,320.730 289.646,316.000 285.587 C 311.270 281.528,306.770 277.640,306.000 276.948 C 305.230 276.255,303.970 275.187,303.200 274.575 C 299.030 271.261,305.241 276.790,319.392 288.990 L 334.985 302.432 337.592 302.316 L 340.200 302.200 340.301 220.100 L 340.402 138.000 354.368 138.000 C 362.050 138.000,368.619 137.891,368.967 137.757 C 369.933 137.387,369.933 98.613,368.967 98.243 C 367.604 97.719,266.385 97.973,266.183 98.500 M63.000 99.217 C 62.120 99.655,61.760 99.897,62.200 99.755 C 62.640 99.613,63.408 99.409,63.906 99.301 C 64.404 99.193,64.910 98.946,65.030 98.752 C 65.367 98.206,64.745 98.349,63.000 99.217 M114.195 99.592 C 114.334 99.816,114.625 100.000,114.843 100.000 C 115.061 100.000,115.984 100.360,116.894 100.800 C 118.808 101.725,119.319 101.830,118.189 101.068 C 117.005 100.269,113.905 99.123,114.195 99.592 M58.779 101.072 C 56.512 102.187,50.800 105.875,50.800 106.224 C 50.800 106.334,52.105 105.554,53.700 104.489 C 55.295 103.425,57.635 102.056,58.900 101.448 C 60.165 100.839,61.200 100.264,61.200 100.171 C 61.200 99.896,61.067 99.946,58.779 101.072 M243.228 101.633 C 243.244 102.385,243.420 103.360,243.620 103.800 C 243.865 104.339,243.905 103.946,243.741 102.600 C 243.451 100.219,243.189 99.724,243.228 101.633 M119.754 102.086 C 120.168 102.369,121.878 103.478,123.554 104.551 C 131.068 109.363,138.169 118.445,141.811 127.902 C 142.425 129.499,142.997 130.737,143.080 130.653 C 143.282 130.452,141.064 124.894,139.737 122.276 C 135.855 114.614,127.654 106.001,121.000 102.595 C 119.900 102.032,119.339 101.803,119.754 102.086 M182.060 102.450 C 182.027 103.028,181.911 104.108,181.801 104.850 L 181.603 106.200 182.024 104.857 C 182.255 104.119,182.372 103.039,182.282 102.457 L 182.120 101.400 182.060 102.450 M244.047 105.723 C 244.021 106.340,244.166 107.600,244.368 108.523 C 244.843 110.692,245.484 114.142,245.817 116.327 C 245.961 117.277,246.159 117.974,246.256 117.877 C 246.426 117.708,246.157 115.868,245.195 110.600 C 244.097 104.588,244.095 104.578,244.047 105.723 M46.205 110.205 C 44.078 112.332,42.431 114.165,42.545 114.278 C 42.658 114.391,43.347 113.790,44.075 112.942 C 45.749 110.994,46.994 109.749,48.942 108.075 C 49.790 107.347,50.391 106.658,50.278 106.545 C 50.165 106.431,48.332 108.078,46.205 110.205 M181.055 108.255 C 180.913 109.286,180.874 110.208,180.969 110.302 C 181.063 110.396,181.265 109.639,181.418 108.618 C 181.571 107.598,181.610 106.676,181.504 106.571 C 181.398 106.465,181.196 107.223,181.055 108.255 M180.464 111.450 C 180.429 111.918,180.305 112.908,180.189 113.650 C 179.996 114.886,180.015 114.917,180.408 114.014 C 180.645 113.472,180.768 112.482,180.683 111.814 C 180.591 111.097,180.502 110.948,180.464 111.450 M40.379 117.231 C 38.422 120.113,35.029 126.763,35.352 127.085 C 35.476 127.209,35.770 126.791,36.004 126.155 C 36.763 124.103,39.208 119.545,40.840 117.141 C 41.714 115.854,42.340 114.800,42.230 114.800 C 42.120 114.800,41.287 115.894,40.379 117.231 M179.660 116.050 C 179.627 116.628,179.511 117.708,179.401 118.450 L 179.203 119.800 179.624 118.457 C 179.855 117.719,179.972 116.639,179.882 116.057 L 179.720 115.000 179.660 116.050 M246.440 119.433 C 246.462 120.075,246.633 121.050,246.820 121.600 C 247.049 122.274,247.084 121.949,246.928 120.600 C 246.669 118.350,246.379 117.659,246.440 119.433 M178.655 121.855 C 178.513 122.886,178.474 123.808,178.569 123.902 C 178.663 123.996,178.865 123.239,179.018 122.218 C 179.171 121.198,179.210 120.276,179.104 120.171 C 178.998 120.065,178.796 120.823,178.655 121.855 M247.240 123.833 C 247.262 124.475,247.433 125.450,247.620 126.000 C 247.849 126.674,247.884 126.349,247.728 125.000 C 247.469 122.750,247.179 122.059,247.240 123.833 M178.064 125.050 C 178.029 125.517,177.905 126.508,177.789 127.250 C 177.596 128.486,177.615 128.517,178.008 127.614 C 178.245 127.072,178.368 126.082,178.283 125.414 C 178.191 124.697,178.102 124.548,178.064 125.050 M248.028 128.433 C 248.044 129.185,248.220 130.160,248.420 130.600 C 248.665 131.139,248.705 130.746,248.541 129.400 C 248.251 127.019,247.989 126.524,248.028 128.433 M33.809 131.009 C 33.197 132.890,32.801 134.534,32.929 134.662 C 33.056 134.790,33.278 134.378,33.420 133.747 C 33.563 133.116,34.038 131.552,34.476 130.270 C 34.915 128.989,35.194 127.861,35.097 127.764 C 35.001 127.667,34.421 129.127,33.809 131.009 M177.229 129.800 C 177.211 130.460,177.032 131.630,176.833 132.400 C 176.345 134.285,175.904 138.263,176.367 136.600 C 177.020 134.258,177.703 129.710,177.485 129.159 C 177.363 128.852,177.248 129.140,177.229 129.800 M85.678 131.540 C 85.171 131.683,86.514 131.806,88.661 131.814 C 90.809 131.822,92.124 131.705,91.583 131.554 C 90.338 131.207,86.888 131.199,85.678 131.540 M143.206 131.833 C 143.209 132.255,143.395 132.870,143.618 133.200 C 143.915 133.638,143.952 133.476,143.756 132.600 C 143.427 131.129,143.198 130.810,143.206 131.833 M212.439 133.036 C 212.200 133.896,212.030 135.410,212.062 136.400 C 212.102 137.637,212.165 137.824,212.266 137.000 C 212.346 136.340,212.536 135.170,212.688 134.400 L 212.964 133.000 213.219 135.000 L 213.474 137.000 213.531 134.800 C 213.607 131.868,213.024 130.927,212.439 133.036 M248.847 132.523 C 248.821 133.140,248.966 134.400,249.168 135.323 C 249.643 137.492,250.284 140.942,250.617 143.127 C 250.761 144.077,250.959 144.774,251.056 144.677 C 251.226 144.508,250.957 142.668,249.995 137.400 C 248.897 131.388,248.895 131.378,248.847 132.523 M81.551 132.997 C 78.156 135.223,75.943 139.903,76.059 144.611 L 76.117 147.000 76.383 144.200 C 76.954 138.196,78.897 134.663,82.572 132.952 C 83.687 132.433,84.240 132.017,83.800 132.027 C 83.360 132.038,82.348 132.475,81.551 132.997 M93.982 132.631 C 96.327 133.648,97.873 135.088,98.959 137.267 C 99.531 138.417,100.000 139.087,100.000 138.757 C 100.000 136.779,95.162 131.967,93.222 132.016 C 92.880 132.024,93.222 132.301,93.982 132.631 M144.046 134.800 C 144.027 135.350,144.187 136.070,144.400 136.400 C 144.894 137.164,144.894 136.342,144.400 134.800 L 144.080 133.800 144.046 134.800 M32.094 137.511 C 31.840 138.770,31.540 140.790,31.427 142.000 L 31.221 144.200 31.605 142.400 C 32.369 138.822,32.891 135.558,32.725 135.392 C 32.632 135.298,32.348 136.252,32.094 137.511 M144.886 138.400 C 144.883 139.170,145.024 140.250,145.200 140.800 C 145.650 142.204,145.665 140.737,145.223 138.600 L 144.892 137.000 144.886 138.400 M213.889 140.600 C 214.008 142.580,214.172 144.275,214.253 144.367 C 214.524 144.674,214.344 140.619,214.006 138.800 C 213.770 137.531,213.736 138.063,213.889 140.600 M175.664 138.650 C 175.629 139.118,175.505 140.108,175.389 140.850 C 175.196 142.086,175.215 142.117,175.608 141.214 C 175.845 140.672,175.968 139.682,175.883 139.014 C 175.791 138.297,175.702 138.148,175.664 138.650 M211.472 140.204 C 211.327 141.082,211.230 142.610,211.256 143.600 C 211.293 145.003,211.380 144.739,211.651 142.400 C 212.028 139.153,211.901 137.605,211.472 140.204 M100.268 141.000 C 100.571 142.977,100.802 143.314,100.794 141.767 C 100.791 141.125,100.616 140.330,100.405 140.000 C 100.145 139.591,100.101 139.910,100.268 141.000 M145.706 143.800 C 145.699 144.900,145.825 146.970,145.986 148.400 L 146.278 151.000 146.296 148.800 C 146.305 147.590,146.179 145.520,146.015 144.200 L 145.718 141.800 145.706 143.800 M174.829 143.400 C 174.811 144.060,174.632 145.230,174.433 146.000 C 173.945 147.885,173.504 151.863,173.967 150.200 C 174.620 147.858,175.303 143.310,175.085 142.759 C 174.963 142.452,174.848 142.740,174.829 143.400 M100.861 157.326 C 100.822 166.555,100.947 171.928,101.214 172.426 C 101.645 173.232,145.646 173.696,146.138 172.900 C 146.240 172.735,136.261 172.648,123.962 172.707 L 101.600 172.813 101.553 160.507 C 101.528 153.738,101.375 147.030,101.214 145.600 C 101.041 144.061,100.897 148.844,100.861 157.326 M30.663 149.500 C 30.332 155.997,30.404 246.930,30.745 252.000 C 30.885 254.090,31.000 230.735,31.000 200.100 C 31.000 169.465,30.983 144.400,30.962 144.400 C 30.941 144.400,30.806 146.695,30.663 149.500 M214.689 148.200 C 214.808 150.180,214.972 151.875,215.053 151.967 C 215.324 152.274,215.144 148.219,214.806 146.400 C 214.570 145.131,214.536 145.663,214.689 148.200 M251.240 146.233 C 251.262 146.875,251.433 147.850,251.620 148.400 C 251.849 149.074,251.884 148.749,251.728 147.400 C 251.469 145.150,251.179 144.459,251.240 146.233 M210.668 147.359 C 210.520 148.433,210.423 149.962,210.452 150.756 C 210.480 151.550,210.660 150.850,210.851 149.200 C 211.240 145.848,211.086 144.307,210.668 147.359 M252.040 150.633 C 252.062 151.275,252.233 152.250,252.420 152.800 C 252.649 153.474,252.684 153.149,252.528 151.800 C 252.269 149.550,251.979 148.859,252.040 150.633 M173.055 153.455 C 172.913 154.486,172.874 155.408,172.969 155.502 C 173.063 155.596,173.265 154.839,173.418 153.818 C 173.571 152.798,173.610 151.876,173.504 151.771 C 173.398 151.665,173.196 152.423,173.055 153.455 M209.868 154.159 C 209.720 155.233,209.623 156.762,209.652 157.556 C 209.680 158.350,209.860 157.650,210.051 156.000 C 210.440 152.648,210.286 151.107,209.868 154.159 M215.485 155.800 C 215.607 157.780,215.772 159.475,215.853 159.567 C 216.140 159.892,215.948 155.374,215.608 153.800 C 215.368 152.686,215.330 153.294,215.485 155.800 M146.573 162.600 C 146.573 167.880,146.630 169.985,146.699 167.277 C 146.768 164.569,146.768 160.249,146.699 157.677 C 146.629 155.105,146.572 157.320,146.573 162.600 M252.828 155.233 C 252.844 155.985,253.020 156.960,253.220 157.400 C 253.465 157.939,253.505 157.546,253.341 156.200 C 253.051 153.819,252.789 153.324,252.828 155.233 M172.429 157.000 C 172.411 157.660,172.232 158.830,172.033 159.600 C 171.545 161.485,171.104 165.463,171.567 163.800 C 172.220 161.458,172.903 156.910,172.685 156.359 C 172.563 156.052,172.448 156.340,172.429 157.000 M253.647 159.323 C 253.621 159.940,253.766 161.200,253.968 162.123 C 254.443 164.292,255.084 167.742,255.417 169.927 C 255.561 170.877,255.759 171.574,255.856 171.477 C 256.026 171.308,255.757 169.468,254.795 164.200 C 253.697 158.188,253.695 158.178,253.647 159.323 M209.068 160.959 C 208.920 162.033,208.823 163.562,208.852 164.356 C 208.880 165.150,209.060 164.450,209.251 162.800 C 209.640 159.448,209.486 157.907,209.068 160.959 M216.279 163.200 C 216.402 165.070,216.570 166.675,216.651 166.767 C 216.939 167.089,216.750 162.982,216.405 161.400 C 216.156 160.257,216.120 160.772,216.279 163.200 M170.655 167.055 C 170.513 168.086,170.474 169.008,170.569 169.102 C 170.663 169.196,170.865 168.439,171.018 167.418 C 171.171 166.398,171.210 165.476,171.104 165.371 C 170.998 165.265,170.796 166.023,170.655 167.055 M208.272 167.804 C 208.127 168.682,208.030 170.210,208.056 171.200 C 208.093 172.603,208.180 172.339,208.451 170.000 C 208.828 166.753,208.701 165.205,208.272 167.804 M217.092 170.800 C 217.212 172.670,217.375 174.275,217.455 174.367 C 217.735 174.688,217.550 170.584,217.214 169.000 C 216.977 167.883,216.940 168.427,217.092 170.800 M170.029 170.600 C 170.011 171.260,169.832 172.430,169.633 173.200 C 169.145 175.085,168.704 179.063,169.167 177.400 C 169.820 175.058,170.503 170.510,170.285 169.959 C 170.163 169.652,170.048 169.940,170.029 170.600 M256.040 173.033 C 256.062 173.675,256.233 174.650,256.420 175.200 C 256.649 175.874,256.684 175.549,256.528 174.200 C 256.269 171.950,255.979 171.259,256.040 173.033 M207.472 174.604 C 207.327 175.482,207.230 177.010,207.256 178.000 C 207.293 179.403,207.380 179.139,207.651 176.800 C 208.028 173.553,207.901 172.005,207.472 174.604 M217.892 178.400 C 218.012 180.270,218.175 181.875,218.255 181.967 C 218.535 182.288,218.350 178.184,218.014 176.600 C 217.777 175.483,217.740 176.027,217.892 178.400 M256.840 177.433 C 256.862 178.075,257.033 179.050,257.220 179.600 C 257.449 180.274,257.484 179.949,257.328 178.600 C 257.069 176.350,256.779 175.659,256.840 177.433 M168.255 180.655 C 168.113 181.686,168.074 182.608,168.169 182.702 C 168.263 182.796,168.465 182.039,168.618 181.018 C 168.771 179.998,168.810 179.076,168.704 178.971 C 168.598 178.865,168.396 179.623,168.255 180.655 M206.668 181.759 C 206.520 182.833,206.423 184.362,206.452 185.156 C 206.480 185.950,206.660 185.250,206.851 183.600 C 207.240 180.248,207.086 178.707,206.668 181.759 M257.628 182.033 C 257.644 182.785,257.820 183.760,258.020 184.200 C 258.265 184.739,258.305 184.346,258.141 183.000 C 257.851 180.619,257.589 180.124,257.628 182.033 M218.689 185.800 C 218.808 187.780,218.972 189.475,219.053 189.567 C 219.324 189.874,219.144 185.819,218.806 184.000 C 218.570 182.731,218.536 183.263,218.689 185.800 M167.076 187.351 C 166.687 189.744,166.448 191.781,166.545 191.878 C 166.641 191.975,166.839 191.277,166.983 190.327 C 167.128 189.377,167.436 187.692,167.668 186.582 C 167.900 185.473,168.021 184.213,167.937 183.782 C 167.852 183.352,167.465 184.958,167.076 187.351 M258.452 186.200 C 258.426 186.860,258.568 188.030,258.767 188.800 C 258.966 189.570,259.249 191.071,259.395 192.137 C 259.541 193.202,259.744 193.990,259.846 193.888 C 260.012 193.721,259.669 191.345,258.795 186.600 C 258.538 185.203,258.494 185.152,258.452 186.200 M205.833 188.833 C 205.683 189.966,205.641 190.974,205.739 191.072 C 205.837 191.171,206.045 190.328,206.200 189.200 C 206.355 188.072,206.398 187.064,206.294 186.961 C 206.191 186.858,205.984 187.700,205.833 188.833 M165.855 194.255 C 165.713 195.286,165.674 196.208,165.769 196.302 C 165.863 196.396,166.065 195.639,166.218 194.618 C 166.371 193.598,166.410 192.676,166.304 192.571 C 166.198 192.465,165.996 193.223,165.855 194.255 M260.040 195.433 C 260.062 196.075,260.233 197.050,260.420 197.600 C 260.649 198.274,260.684 197.949,260.528 196.600 C 260.269 194.350,259.979 193.659,260.040 195.433 M211.529 196.902 C 211.238 197.178,210.010 198.212,208.800 199.200 C 207.590 200.188,206.405 201.177,206.167 201.398 C 204.660 202.796,159.088 240.626,158.780 240.733 C 158.571 240.807,158.380 240.087,158.356 239.133 L 158.312 237.400 157.967 239.156 C 157.227 242.926,154.992 244.558,185.800 218.844 C 200.320 206.725,212.296 196.807,212.414 196.805 C 212.532 196.802,215.547 199.325,219.114 202.411 C 222.681 205.497,225.588 207.882,225.574 207.711 C 225.559 207.540,223.264 205.458,220.474 203.085 C 217.683 200.711,214.791 198.236,214.046 197.585 C 212.526 196.256,212.280 196.189,211.529 196.902 M165.264 197.450 C 165.229 197.918,165.105 198.908,164.989 199.650 C 164.796 200.886,164.815 200.917,165.208 200.014 C 165.445 199.472,165.568 198.482,165.483 197.814 C 165.391 197.097,165.302 196.948,165.264 197.450 M260.840 199.833 C 260.862 200.475,261.033 201.450,261.220 202.000 C 261.449 202.674,261.484 202.349,261.328 201.000 C 261.069 198.750,260.779 198.059,260.840 199.833 M164.460 202.050 C 164.427 202.628,164.311 203.708,164.201 204.450 L 164.003 205.800 164.424 204.457 C 164.655 203.719,164.772 202.639,164.682 202.057 L 164.520 201.000 164.460 202.050 M261.628 204.433 C 261.644 205.185,261.820 206.160,262.020 206.600 C 262.265 207.139,262.305 206.746,262.141 205.400 C 261.851 203.019,261.589 202.524,261.628 204.433 M154.312 252.920 C 122.572 279.386,96.544 301.346,96.472 301.720 C 96.349 302.359,103.276 302.400,210.400 302.400 C 316.358 302.400,324.449 302.353,324.329 301.737 C 324.201 301.078,307.176 286.099,307.226 286.690 C 307.241 286.860,309.536 288.943,312.326 291.317 C 315.117 293.691,318.120 296.270,319.000 297.047 C 319.880 297.824,321.363 299.097,322.296 299.875 C 323.229 300.653,323.893 301.449,323.772 301.645 C 323.645 301.850,275.883 302.000,210.400 302.000 C 144.917 302.000,97.155 301.850,97.028 301.645 C 96.907 301.449,97.661 300.601,98.704 299.758 C 99.747 298.916,100.690 298.129,100.800 298.008 C 100.910 297.888,101.990 296.984,103.200 296.000 C 104.410 295.016,105.490 294.116,105.600 294.000 C 105.710 293.884,106.790 292.984,108.000 292.000 C 109.210 291.016,110.290 290.116,110.400 290.000 C 110.510 289.884,111.590 288.984,112.800 288.000 C 114.010 287.016,115.090 286.116,115.200 286.000 C 115.310 285.884,116.390 284.984,117.600 284.000 C 118.810 283.016,119.890 282.112,120.000 281.991 C 121.459 280.384,211.987 205.432,212.471 205.430 C 212.839 205.429,213.054 205.287,212.947 205.114 C 212.840 204.941,212.588 204.800,212.386 204.800 C 212.185 204.800,186.051 226.454,154.312 252.920 M213.626 205.894 C 213.641 206.062,215.936 208.143,218.726 210.517 C 221.517 212.891,224.520 215.468,225.400 216.242 C 228.720 219.165,230.954 220.984,230.689 220.551 C 230.273 219.868,213.596 205.542,213.626 205.894 M163.455 207.855 C 163.313 208.886,163.274 209.808,163.369 209.902 C 163.463 209.996,163.665 209.239,163.818 208.218 C 163.971 207.198,164.010 206.276,163.904 206.171 C 163.798 206.065,163.596 206.823,163.455 207.855 M262.428 208.833 C 262.444 209.585,262.620 210.560,262.820 211.000 C 263.065 211.539,263.105 211.146,262.941 209.800 C 262.651 207.419,262.389 206.924,262.428 208.833 M226.000 208.143 C 226.000 208.260,234.497 215.694,244.883 224.663 C 255.268 233.632,264.358 241.490,265.083 242.126 C 265.807 242.762,266.390 243.129,266.377 242.941 C 266.364 242.754,264.069 240.668,261.277 238.308 C 258.485 235.947,255.749 233.607,255.199 233.108 C 254.648 232.608,253.028 231.211,251.599 230.002 C 250.169 228.794,248.910 227.707,248.800 227.588 C 248.690 227.468,245.990 225.134,242.800 222.400 C 239.610 219.666,236.910 217.332,236.800 217.212 C 236.690 217.093,235.431 216.006,234.001 214.798 C 232.572 213.589,230.772 212.035,230.001 211.344 C 227.660 209.245,226.000 207.917,226.000 208.143 M162.864 211.050 C 162.829 211.518,162.705 212.507,162.589 213.250 C 162.396 214.486,162.415 214.517,162.808 213.614 C 163.045 213.072,163.168 212.082,163.083 211.414 C 162.991 210.697,162.902 210.548,162.864 211.050 M263.252 213.000 C 263.226 213.660,263.368 214.830,263.567 215.600 C 263.766 216.370,264.049 217.871,264.195 218.937 C 264.341 220.002,264.544 220.790,264.646 220.688 C 264.812 220.521,264.469 218.145,263.595 213.400 C 263.338 212.003,263.294 211.952,263.252 213.000 M162.060 215.650 C 162.027 216.228,161.911 217.308,161.801 218.050 L 161.603 219.400 162.024 218.057 C 162.255 217.319,162.372 216.239,162.282 215.657 L 162.120 214.600 162.060 215.650 M161.055 221.455 C 160.913 222.486,160.874 223.408,160.969 223.502 C 161.063 223.596,161.265 222.839,161.418 221.818 C 161.571 220.798,161.610 219.876,161.504 219.771 C 161.398 219.665,161.196 220.423,161.055 221.455 M101.043 221.033 C 100.909 221.381,100.826 229.526,100.859 239.133 C 100.892 248.975,101.048 255.552,101.215 254.200 C 101.379 252.880,101.533 244.823,101.557 236.297 L 101.600 220.793 123.900 220.897 L 146.200 221.000 146.408 234.400 L 146.616 247.800 146.708 234.733 C 146.759 227.546,146.691 221.381,146.557 221.033 C 146.186 220.066,101.414 220.066,101.043 221.033 M231.223 221.059 C 231.236 221.246,233.531 223.337,236.323 225.705 C 239.115 228.072,242.120 230.649,243.000 231.430 C 246.114 234.195,248.400 236.072,248.400 235.864 C 248.400 235.748,245.116 232.806,241.101 229.326 C 237.087 225.847,233.217 222.486,232.501 221.859 C 231.786 221.231,231.210 220.871,231.223 221.059 M264.840 222.233 C 264.862 222.875,265.033 223.850,265.220 224.400 C 265.449 225.074,265.484 224.749,265.328 223.400 C 265.069 221.150,264.779 220.459,264.840 222.233 M160.464 224.650 C 160.429 225.118,160.305 226.107,160.189 226.850 C 159.996 228.086,160.015 228.117,160.408 227.214 C 160.645 226.672,160.768 225.682,160.683 225.014 C 160.591 224.297,160.502 224.148,160.464 224.650 M265.640 226.633 C 265.662 227.275,265.833 228.250,266.020 228.800 C 266.249 229.474,266.284 229.149,266.128 227.800 C 265.869 225.550,265.579 224.859,265.640 226.633 M159.629 229.400 C 159.611 230.060,159.432 231.230,159.233 232.000 C 158.745 233.885,158.304 237.863,158.767 236.200 C 159.420 233.858,160.103 229.310,159.885 228.759 C 159.763 228.452,159.648 228.740,159.629 229.400 M266.428 231.233 C 266.444 231.985,266.620 232.960,266.820 233.400 C 267.065 233.939,267.105 233.546,266.941 232.200 C 266.651 229.819,266.389 229.324,266.428 231.233 M267.228 235.633 C 267.244 236.385,267.420 237.360,267.620 237.800 C 267.865 238.339,267.905 237.946,267.741 236.600 C 267.451 234.219,267.189 233.724,267.228 235.633 M248.823 236.259 C 248.836 236.446,251.131 238.532,253.923 240.892 C 256.715 243.253,259.451 245.593,260.001 246.092 C 260.552 246.592,262.172 247.989,263.601 249.198 C 265.031 250.406,266.290 251.493,266.400 251.612 C 266.510 251.732,269.210 254.066,272.400 256.800 C 275.590 259.534,278.290 261.868,278.400 261.988 C 278.510 262.107,279.770 263.193,281.200 264.400 C 282.630 265.607,283.890 266.693,284.000 266.814 C 284.110 266.934,288.070 270.354,292.800 274.413 C 297.530 278.472,302.030 282.360,302.800 283.052 C 305.104 285.126,306.800 286.485,306.800 286.258 C 306.800 286.140,294.343 275.286,279.117 262.137 C 263.891 248.988,250.841 237.709,250.117 237.073 C 249.393 236.437,248.810 236.071,248.823 236.259 M268.203 240.769 C 268.300 241.963,268.574 243.133,268.813 243.369 C 269.124 243.678,269.176 243.613,268.996 243.140 C 268.858 242.777,268.584 241.607,268.386 240.540 L 268.027 238.600 268.203 240.769 M267.413 244.015 C 268.135 244.812,268.803 245.046,268.797 244.500 C 268.795 244.335,268.323 243.982,267.748 243.715 C 266.726 243.240,266.718 243.247,267.413 244.015 M145.973 250.579 C 145.826 251.581,141.025 255.740,114.022 278.261 L 82.244 304.764 80.222 304.908 L 78.200 305.052 80.225 305.126 L 82.250 305.200 113.025 279.565 C 147.549 250.806,146.535 251.696,146.308 250.358 C 146.159 249.479,146.132 249.497,145.973 250.579 M76.054 255.234 C 76.002 257.367,77.219 262.132,78.031 262.977 C 78.230 263.184,78.015 262.284,77.552 260.977 C 77.090 259.670,76.576 257.340,76.410 255.800 L 76.109 253.000 76.054 255.234 M31.270 256.800 C 31.257 257.350,31.395 258.520,31.577 259.400 L 31.908 261.000 31.907 259.600 C 31.905 257.835,31.309 255.212,31.270 256.800 M100.460 257.667 C 100.427 258.254,100.296 259.064,100.170 259.467 C 99.952 260.160,99.965 260.161,100.395 259.490 C 100.646 259.099,100.777 258.289,100.686 257.690 L 100.520 256.600 100.460 257.667 M99.075 262.171 C 97.282 266.519,94.286 268.200,88.328 268.200 C 85.798 268.200,84.303 268.338,84.660 268.538 C 85.769 269.158,92.463 268.651,94.161 267.817 C 96.778 266.533,100.382 262.128,99.923 260.777 C 99.856 260.577,99.474 261.205,99.075 262.171 M32.253 262.796 C 32.528 264.775,34.961 272.648,35.591 273.600 C 36.131 274.416,36.136 273.424,35.597 272.495 C 34.993 271.456,32.804 264.457,32.772 263.464 C 32.756 262.989,32.577 262.240,32.373 261.800 C 32.116 261.245,32.079 261.550,32.253 262.796 M78.734 264.200 C 79.217 265.173,81.082 266.939,82.274 267.551 C 83.775 268.322,83.870 268.038,82.400 267.174 C 81.630 266.721,80.401 265.687,79.668 264.876 C 78.936 264.064,78.516 263.760,78.734 264.200 M36.578 275.808 C 37.101 277.061,38.700 279.598,38.338 278.600 C 37.924 277.464,36.354 274.400,36.185 274.400 C 36.077 274.400,36.254 275.034,36.578 275.808 M39.211 280.600 C 40.886 283.455,44.284 287.740,46.972 290.388 C 50.623 293.985,50.267 293.281,46.443 289.342 C 44.706 287.554,42.342 284.675,41.188 282.945 C 38.834 279.415,37.786 278.172,39.211 280.600 M50.384 293.377 C 51.536 294.772,58.913 299.313,61.792 300.400 C 63.602 301.083,62.948 300.665,59.000 298.611 C 57.020 297.582,54.140 295.824,52.600 294.705 C 51.060 293.586,50.063 292.989,50.384 293.377 M64.226 301.365 C 66.244 302.244,67.526 302.459,65.800 301.629 C 64.920 301.206,63.930 300.853,63.600 300.845 C 63.270 300.838,63.552 301.072,64.226 301.365 M68.200 302.800 C 69.396 303.314,70.395 303.314,69.600 302.800 C 69.270 302.587,68.640 302.422,68.200 302.434 L 67.400 302.456 68.200 302.800 M71.200 303.600 C 72.568 304.038,73.619 304.038,72.600 303.600 C 72.160 303.411,71.440 303.262,71.000 303.268 C 70.357 303.277,70.396 303.343,71.200 303.600 M75.000 304.423 C 77.026 304.842,78.663 304.823,77.000 304.400 C 76.340 304.232,75.260 304.094,74.600 304.093 C 73.591 304.092,73.655 304.145,75.000 304.423 M366.500 330.218 C 364.408 330.781,361.200 332.234,361.200 332.618 C 361.200 332.730,361.726 332.549,362.369 332.216 C 365.486 330.604,367.386 330.215,372.178 330.208 C 374.806 330.203,376.426 330.086,375.778 329.947 C 373.663 329.494,368.647 329.640,366.500 330.218 M378.758 331.237 C 379.725 331.666,380.588 331.945,380.675 331.858 C 380.848 331.686,377.765 330.382,377.292 330.428 C 377.131 330.444,377.791 330.808,378.758 331.237 M381.200 332.144 C 381.200 332.249,381.785 332.701,382.500 333.149 C 383.215 333.597,384.307 334.440,384.926 335.022 C 385.546 335.604,386.135 335.998,386.236 335.897 C 386.338 335.796,385.471 334.994,384.310 334.115 C 381.978 332.350,381.200 331.857,381.200 332.144 M358.271 334.805 C 353.821 338.872,351.553 344.069,351.667 349.938 L 351.734 353.400 351.993 349.400 C 352.407 342.988,354.439 338.596,358.747 334.798 C 359.986 333.705,360.880 332.809,360.732 332.806 C 360.585 332.803,359.477 333.702,358.271 334.805 M369.400 333.768 C 369.180 333.852,368.021 334.224,366.824 334.593 C 362.500 335.930,356.774 341.369,356.806 344.111 C 356.809 344.380,357.214 343.790,357.706 342.800 C 360.757 336.660,368.339 332.987,374.798 334.521 C 377.661 335.201,378.565 335.122,376.138 334.403 C 374.520 333.925,370.082 333.506,369.400 333.768 M379.820 336.329 C 380.029 336.510,380.920 337.209,381.800 337.883 C 382.680 338.558,384.075 340.251,384.900 341.646 C 385.725 343.040,386.400 343.946,386.400 343.659 C 386.400 342.173,381.042 336.000,379.753 336.000 C 379.581 336.000,379.611 336.148,379.820 336.329 M387.194 337.403 C 388.787 339.321,388.921 339.445,388.486 338.596 C 388.259 338.153,387.652 337.434,387.137 336.998 C 386.233 336.234,386.235 336.248,387.194 337.403 M363.396 338.100 C 363.264 338.815,363.210 344.312,363.278 350.315 C 363.410 362.123,363.393 362.037,365.600 361.947 C 366.500 361.909,366.479 361.880,365.400 361.649 L 364.200 361.392 364.094 349.296 L 363.988 337.200 368.694 337.202 C 374.170 337.205,375.868 337.586,377.911 339.273 L 379.400 340.502 377.938 339.080 C 376.007 337.203,374.362 336.805,368.518 336.802 L 363.636 336.800 363.396 338.100 M388.800 339.739 C 388.800 340.166,390.114 342.419,390.271 342.262 C 390.477 342.056,389.295 339.600,388.990 339.600 C 388.885 339.600,388.800 339.662,388.800 339.739 M367.380 344.600 L 367.400 349.000 369.502 349.035 L 371.605 349.070 369.615 348.914 L 367.626 348.759 367.493 344.480 L 367.361 340.200 367.380 344.600 M372.000 340.155 C 372.000 340.240,372.530 340.387,373.179 340.482 C 373.827 340.577,374.267 340.508,374.155 340.328 C 373.957 340.007,372.000 339.850,372.000 340.155 M390.456 343.200 C 390.456 343.530,390.611 344.160,390.800 344.600 C 391.017 345.104,391.144 345.178,391.144 344.800 C 391.144 344.470,390.989 343.840,390.800 343.400 C 390.583 342.896,390.456 342.822,390.456 343.200 M375.900 344.731 C 375.628 346.756,374.749 347.872,373.033 348.370 C 372.089 348.644,372.004 348.736,372.669 348.764 C 374.620 348.845,376.959 345.474,376.307 343.521 C 376.211 343.235,376.028 343.779,375.900 344.731 M380.093 344.400 C 380.093 345.170,380.175 345.485,380.276 345.100 C 380.376 344.715,380.376 344.085,380.276 343.700 C 380.175 343.315,380.093 343.630,380.093 344.400 M386.658 345.600 C 386.975 347.325,387.202 347.651,387.194 346.367 C 387.191 345.835,387.011 345.130,386.794 344.800 C 386.518 344.378,386.477 344.615,386.658 345.600 M356.249 345.415 C 356.112 345.773,356.023 346.636,356.050 347.333 C 356.092 348.387,356.150 348.298,356.399 346.800 C 356.717 344.886,356.659 344.348,356.249 345.415 M391.324 349.800 C 391.322 353.502,391.371 353.851,391.632 352.000 C 391.802 350.790,391.803 348.810,391.634 347.600 C 391.375 345.750,391.326 346.100,391.324 349.800 M379.027 347.648 C 378.592 348.634,377.762 349.603,376.936 350.091 C 376.182 350.535,375.659 350.992,375.772 351.105 C 376.199 351.533,378.908 349.038,379.466 347.704 C 380.291 345.729,379.896 345.679,379.027 347.648 M387.324 349.800 C 387.326 351.120,387.401 351.612,387.490 350.893 C 387.579 350.174,387.577 349.094,387.486 348.493 C 387.395 347.892,387.322 348.480,387.324 349.800 M356.166 352.494 C 356.515 357.402,363.094 364.935,366.896 364.779 C 367.173 364.768,366.680 364.469,365.800 364.115 C 360.956 362.167,357.361 357.703,356.368 352.400 L 356.031 350.600 356.166 352.494 M374.400 351.573 C 374.400 351.778,375.930 353.876,377.800 356.235 C 380.047 359.069,381.205 360.876,381.215 361.562 C 381.228 362.527,381.382 362.438,383.415 360.281 C 384.617 359.006,385.600 357.764,385.600 357.521 C 385.600 357.279,385.090 357.782,384.467 358.640 C 383.020 360.632,381.922 361.555,381.718 360.951 C 381.635 360.703,380.055 358.554,378.207 356.174 C 376.359 353.794,374.937 351.701,375.047 351.523 C 375.157 351.346,375.057 351.200,374.824 351.200 C 374.591 351.200,374.400 351.368,374.400 351.573 M367.198 356.682 C 367.089 359.366,367.141 361.421,367.314 361.248 C 367.486 361.074,367.575 358.878,367.512 356.366 L 367.396 351.800 367.198 356.682 M371.846 354.325 C 372.897 355.714,373.937 356.961,374.157 357.097 C 374.749 357.463,373.091 355.237,371.404 353.400 C 370.266 352.160,370.365 352.368,371.846 354.325 M386.854 353.051 C 386.825 353.519,386.528 354.554,386.195 355.351 C 385.862 356.148,385.679 356.800,385.789 356.800 C 386.207 356.800,387.225 353.788,387.071 353.012 C 386.916 352.233,386.907 352.235,386.854 353.051 M352.249 354.800 C 352.384 355.570,352.736 356.650,353.031 357.200 C 353.773 358.581,353.711 358.173,352.790 355.600 C 352.242 354.070,352.077 353.826,352.249 354.800 M390.462 355.700 C 390.256 356.415,389.966 357.360,389.818 357.800 C 389.651 358.296,389.766 358.219,390.119 357.600 C 390.734 356.522,391.335 354.400,391.026 354.400 C 390.923 354.400,390.669 354.985,390.462 355.700 M375.551 359.138 C 377.453 361.540,378.371 362.051,376.590 359.717 C 375.715 358.571,374.850 357.626,374.666 357.617 C 374.483 357.608,374.881 358.292,375.551 359.138 M354.245 359.700 C 355.041 361.255,358.024 364.909,358.285 364.648 C 358.386 364.547,357.895 363.865,357.194 363.132 C 356.493 362.400,355.470 361.035,354.921 360.100 C 353.748 358.100,353.286 357.827,354.245 359.700 M387.993 360.810 C 386.620 362.950,383.445 365.867,381.300 366.959 C 380.585 367.323,380.000 367.710,380.000 367.818 C 380.000 369.220,387.640 362.629,388.949 360.098 C 389.951 358.162,389.457 358.530,387.993 360.810 M378.900 361.876 C 379.285 361.976,379.915 361.976,380.300 361.876 C 380.685 361.775,380.370 361.693,379.600 361.693 C 378.830 361.693,378.515 361.775,378.900 361.876 M379.400 363.200 C 378.740 363.637,378.380 363.992,378.600 363.988 C 379.001 363.982,381.176 362.423,380.800 362.412 C 380.690 362.408,380.060 362.763,379.400 363.200 M375.800 364.671 C 374.435 365.092,372.810 365.230,370.682 365.109 C 368.967 365.010,367.797 365.078,368.082 365.259 C 369.382 366.084,376.563 365.398,377.780 364.333 C 378.253 363.919,378.235 363.922,375.800 364.671 M359.334 365.500 C 360.401 366.719,365.505 369.094,367.600 369.346 L 369.400 369.563 367.400 369.038 C 364.625 368.310,362.729 367.462,360.504 365.953 C 359.235 365.092,358.845 364.940,359.334 365.500 M377.800 368.389 C 377.360 368.574,376.370 368.917,375.600 369.153 L 374.200 369.582 375.695 369.374 C 377.258 369.156,380.243 368.023,379.200 368.043 C 378.870 368.049,378.240 368.205,377.800 368.389 M370.500 369.887 C 371.105 369.978,372.095 369.978,372.700 369.887 C 373.305 369.795,372.810 369.720,371.600 369.720 C 370.390 369.720,369.895 369.795,370.500 369.887 " stroke="none" fill="#b2ab24" fill-rule="evenodd"></path><path id="path4" d="M78.800 95.616 C 78.004 95.792,79.125 95.833,81.400 95.711 C 83.600 95.592,85.475 95.429,85.567 95.347 C 85.873 95.077,80.220 95.301,78.800 95.616 M91.633 95.349 C 91.725 95.431,93.510 95.599,95.600 95.721 C 97.831 95.852,98.905 95.809,98.200 95.619 C 97.009 95.297,91.314 95.063,91.633 95.349 M73.800 96.400 C 72.706 96.870,74.533 96.870,76.000 96.400 C 76.975 96.088,76.970 96.079,75.800 96.068 C 75.140 96.062,74.240 96.211,73.800 96.400 M101.200 96.400 C 102.667 96.870,104.494 96.870,103.400 96.400 C 102.960 96.211,102.060 96.062,101.400 96.068 C 100.230 96.079,100.225 96.088,101.200 96.400 M70.200 97.200 L 69.400 97.544 70.200 97.544 C 70.640 97.544,71.360 97.389,71.800 97.200 L 72.600 96.856 71.800 96.856 C 71.360 96.856,70.640 97.011,70.200 97.200 M105.200 97.200 C 106.742 97.694,107.564 97.694,106.800 97.200 C 106.470 96.987,105.750 96.827,105.200 96.846 L 104.200 96.880 105.200 97.200 M108.200 98.000 C 109.396 98.514,110.395 98.514,109.600 98.000 C 109.270 97.787,108.640 97.622,108.200 97.634 L 107.400 97.656 108.200 98.000 M65.000 98.800 C 64.708 99.273,65.099 99.273,66.200 98.800 C 66.971 98.469,66.969 98.455,66.124 98.428 C 65.642 98.413,65.136 98.580,65.000 98.800 M183.200 98.700 C 183.200 98.865,196.499 98.953,212.754 98.895 L 242.308 98.790 242.634 100.695 C 242.873 102.092,242.997 102.327,243.099 101.577 C 243.176 101.014,243.054 100.069,242.829 99.477 L 242.420 98.400 212.810 98.400 C 196.524 98.400,183.200 98.535,183.200 98.700 M266.400 117.998 L 266.400 137.600 280.700 137.505 L 295.000 137.411 280.900 137.300 L 266.800 137.190 266.800 117.995 L 266.800 98.800 317.800 98.800 L 368.800 98.800 368.800 117.995 L 368.800 137.190 354.700 137.303 L 340.600 137.416 354.800 137.408 L 369.000 137.400 369.000 118.000 L 369.000 98.600 317.700 98.498 L 266.400 98.397 266.400 117.998 M62.053 99.853 C 61.313 100.176,60.792 100.525,60.895 100.628 C 60.999 100.732,61.875 100.466,62.842 100.037 C 63.809 99.608,64.330 99.258,64.000 99.261 C 63.670 99.263,62.794 99.530,62.053 99.853 M118.200 101.915 C 125.742 105.873,132.018 111.370,135.993 117.500 C 137.170 119.315,138.209 120.725,138.301 120.633 C 139.260 119.673,128.725 107.959,124.117 104.862 C 121.486 103.094,115.673 100.005,115.000 100.018 C 114.780 100.022,116.220 100.875,118.200 101.915 M182.689 100.800 C 182.536 101.350,182.425 102.250,182.442 102.800 C 182.468 103.661,182.526 103.614,182.858 102.460 C 183.070 101.724,183.181 100.824,183.106 100.460 C 183.008 99.994,182.886 100.093,182.689 100.800 M53.600 104.501 C 48.599 107.930,44.234 112.165,41.325 116.410 C 39.462 119.130,37.541 122.475,37.733 122.667 C 37.827 122.760,38.487 121.793,39.201 120.518 C 42.501 114.621,47.999 108.722,53.800 104.854 C 57.385 102.463,57.479 102.391,56.967 102.422 C 56.765 102.434,55.250 103.369,53.600 104.501 M243.268 104.000 C 243.287 105.650,243.917 107.356,243.932 105.800 C 243.938 105.140,243.789 104.240,243.600 103.800 C 243.287 103.073,243.257 103.091,243.268 104.000 M181.782 106.182 C 181.629 107.202,181.594 108.127,181.704 108.237 C 181.814 108.347,182.029 107.602,182.182 106.582 C 182.335 105.561,182.370 104.637,182.260 104.527 C 182.150 104.417,181.935 105.161,181.782 106.182 M244.080 108.400 C 244.080 108.950,244.224 109.850,244.400 110.400 L 244.720 111.400 244.720 110.400 C 244.720 109.850,244.576 108.950,244.400 108.400 L 244.080 107.400 244.080 108.400 M180.982 110.582 C 180.829 111.602,180.794 112.527,180.904 112.637 C 181.014 112.747,181.229 112.002,181.382 110.982 C 181.535 109.961,181.570 109.037,181.460 108.927 C 181.350 108.817,181.135 109.561,180.982 110.582 M244.880 112.800 C 244.880 113.350,245.024 114.250,245.200 114.800 L 245.520 115.800 245.520 114.800 C 245.520 114.250,245.376 113.350,245.200 112.800 L 244.880 111.800 244.880 112.800 M180.289 114.400 C 180.136 114.950,180.025 115.850,180.042 116.400 C 180.068 117.261,180.126 117.214,180.458 116.060 C 180.670 115.324,180.781 114.424,180.706 114.060 C 180.608 113.594,180.486 113.693,180.289 114.400 M245.687 117.200 C 245.691 117.750,245.832 118.740,246.000 119.400 L 246.305 120.600 246.313 119.400 C 246.317 118.740,246.176 117.750,246.000 117.200 L 245.680 116.200 245.687 117.200 M179.382 119.782 C 179.229 120.802,179.194 121.727,179.304 121.837 C 179.414 121.947,179.629 121.202,179.782 120.182 C 179.935 119.161,179.970 118.237,179.860 118.127 C 179.750 118.017,179.535 118.761,179.382 119.782 M246.487 121.600 C 246.491 122.150,246.632 123.140,246.800 123.800 L 247.105 125.000 247.113 123.800 C 247.117 123.140,246.976 122.150,246.800 121.600 L 246.480 120.600 246.487 121.600 M139.915 124.386 C 140.711 126.138,141.429 127.505,141.510 127.423 C 141.693 127.240,138.927 121.200,138.660 121.200 C 138.554 121.200,139.119 122.634,139.915 124.386 M178.582 124.182 C 178.429 125.202,178.394 126.127,178.504 126.237 C 178.614 126.347,178.829 125.602,178.982 124.582 C 179.135 123.561,179.170 122.637,179.060 122.527 C 178.950 122.417,178.735 123.161,178.582 124.182 M36.623 124.606 C 35.760 126.672,35.874 126.906,36.847 125.062 C 37.293 124.216,37.565 123.432,37.452 123.319 C 37.339 123.206,36.966 123.785,36.623 124.606 M247.280 126.200 C 247.280 126.860,247.424 127.850,247.600 128.400 C 247.911 129.372,247.920 129.367,247.920 128.200 C 247.920 127.540,247.776 126.550,247.600 126.000 C 247.289 125.028,247.280 125.033,247.280 126.200 M177.889 128.000 C 177.736 128.550,177.625 129.450,177.642 130.000 C 177.668 130.861,177.726 130.814,178.058 129.660 C 178.270 128.924,178.381 128.024,178.306 127.660 C 178.208 127.194,178.086 127.293,177.889 128.000 M141.858 128.800 C 142.369 130.795,143.144 132.604,143.142 131.800 C 143.141 131.360,142.794 130.280,142.371 129.400 C 141.948 128.520,141.717 128.250,141.858 128.800 M212.480 130.480 C 212.216 130.744,212.016 131.689,212.036 132.580 L 212.072 134.200 212.467 132.826 C 212.767 131.781,212.948 131.589,213.225 132.026 C 213.486 132.439,213.589 132.235,213.594 131.300 C 213.600 129.929,213.273 129.687,212.480 130.480 M248.068 130.800 C 248.087 132.450,248.717 134.156,248.732 132.600 C 248.738 131.940,248.589 131.040,248.400 130.600 C 248.087 129.873,248.057 129.891,248.068 130.800 M33.873 131.753 C 33.723 132.145,33.611 132.766,33.625 133.133 C 33.642 133.575,33.781 133.474,34.037 132.834 C 34.249 132.303,34.361 131.682,34.285 131.454 C 34.209 131.227,34.024 131.361,33.873 131.753 M83.800 131.600 L 83.000 131.944 83.800 131.932 C 84.240 131.926,85.050 131.776,85.600 131.600 L 86.600 131.280 85.600 131.268 C 85.050 131.262,84.240 131.411,83.800 131.600 M92.476 131.788 C 96.283 132.837,99.098 135.501,100.055 138.962 C 100.305 139.863,100.585 140.388,100.678 140.129 C 101.670 137.370,95.054 131.060,91.354 131.236 C 90.939 131.255,91.444 131.504,92.476 131.788 M176.982 133.382 C 176.829 134.402,176.794 135.327,176.904 135.437 C 177.014 135.547,177.229 134.802,177.382 133.782 C 177.535 132.761,177.570 131.837,177.460 131.727 C 177.350 131.617,177.135 132.361,176.982 133.382 M79.832 134.040 C 78.605 135.162,77.600 136.242,77.600 136.439 C 77.600 136.636,78.455 135.943,79.500 134.899 C 80.545 133.854,81.760 132.786,82.200 132.524 C 82.640 132.261,82.790 132.036,82.532 132.024 C 82.275 132.011,81.060 132.918,79.832 134.040 M143.246 133.200 C 143.265 133.530,143.424 134.250,143.600 134.800 L 143.920 135.800 143.954 134.800 C 143.973 134.250,143.813 133.530,143.600 133.200 C 143.255 132.667,143.216 132.667,143.246 133.200 M213.680 135.000 C 213.668 135.880,213.803 137.410,213.980 138.400 L 214.300 140.200 214.320 138.600 C 214.332 137.720,214.197 136.190,214.020 135.200 L 213.700 133.400 213.680 135.000 M33.049 134.615 C 32.912 134.973,32.816 135.656,32.836 136.133 C 32.862 136.747,32.985 136.608,33.259 135.656 C 33.657 134.272,33.494 133.458,33.049 134.615 M248.880 135.200 C 248.880 135.750,249.024 136.650,249.200 137.200 L 249.520 138.200 249.520 137.200 C 249.520 136.650,249.376 135.750,249.200 135.200 L 248.880 134.200 248.880 135.200 M211.440 137.731 C 211.269 139.234,211.221 140.554,211.332 140.665 C 211.611 140.944,212.117 136.681,211.915 135.753 C 211.825 135.339,211.611 136.229,211.440 137.731 M144.046 136.600 C 144.115 138.231,144.715 139.587,144.754 138.200 C 144.773 137.540,144.613 136.730,144.400 136.400 C 144.081 135.906,144.018 135.941,144.046 136.600 M176.182 137.782 C 176.029 138.802,175.994 139.727,176.104 139.837 C 176.214 139.947,176.429 139.202,176.582 138.182 C 176.735 137.161,176.770 136.237,176.660 136.127 C 176.550 136.017,176.335 136.761,176.182 137.782 M32.182 138.982 C 32.029 140.002,31.994 140.927,32.104 141.037 C 32.214 141.147,32.429 140.402,32.582 139.382 C 32.735 138.361,32.770 137.437,32.660 137.327 C 32.550 137.217,32.335 137.961,32.182 138.982 M295.298 202.464 L 295.200 267.528 298.300 270.264 C 300.005 271.769,301.490 273.090,301.600 273.200 C 301.710 273.310,302.970 274.385,304.400 275.590 C 305.830 276.794,307.090 277.878,307.200 277.999 C 307.310 278.121,311.270 281.538,316.000 285.594 C 320.730 289.649,324.690 293.066,324.800 293.186 C 324.910 293.307,326.169 294.394,327.599 295.602 C 329.028 296.811,330.869 298.410,331.690 299.156 C 333.366 300.679,334.800 301.740,334.800 301.458 C 334.800 301.355,333.135 299.844,331.100 298.100 C 324.677 292.595,308.635 278.741,302.049 273.011 C 299.765 271.025,297.425 269.012,296.849 268.538 L 295.800 267.676 295.598 202.538 L 295.395 137.400 295.298 202.464 M249.687 139.600 C 249.691 140.150,249.832 141.140,250.000 141.800 L 250.305 143.000 250.313 141.800 C 250.317 141.140,250.176 140.150,250.000 139.600 L 249.680 138.600 249.687 139.600 M76.273 139.753 C 76.123 140.145,76.011 140.766,76.025 141.133 C 76.042 141.575,76.181 141.474,76.437 140.834 C 76.649 140.303,76.761 139.682,76.685 139.454 C 76.609 139.227,76.424 139.361,76.273 139.753 M144.863 140.800 C 144.854 141.350,144.995 142.520,145.177 143.400 L 145.508 145.000 145.514 143.400 C 145.517 142.520,145.376 141.350,145.200 140.800 L 144.880 139.800 144.863 140.800 M101.086 144.000 C 101.209 145.870,101.375 147.475,101.455 147.567 C 101.746 147.901,101.511 142.570,101.191 141.600 C 100.998 141.013,100.954 142.004,101.086 144.000 M175.489 141.600 C 175.336 142.150,175.225 143.050,175.242 143.600 C 175.268 144.461,175.326 144.414,175.658 143.260 C 175.870 142.524,175.981 141.624,175.906 141.260 C 175.808 140.794,175.686 140.893,175.489 141.600 M214.480 142.600 C 214.468 143.480,214.603 145.010,214.780 146.000 L 215.100 147.800 215.120 146.200 C 215.132 145.320,214.997 143.790,214.820 142.800 L 214.500 141.000 214.480 142.600 M31.486 143.400 C 31.333 144.280,31.230 145.900,31.256 147.000 C 31.299 148.786,31.342 148.679,31.656 146.000 C 32.045 142.696,31.925 140.866,31.486 143.400 M210.615 144.724 C 210.450 146.332,210.408 147.741,210.522 147.855 C 210.800 148.133,211.338 143.006,211.102 142.330 C 211.000 142.039,210.781 143.116,210.615 144.724 M75.461 145.100 C 75.095 148.977,75.209 253.005,75.582 255.400 C 75.753 256.500,75.917 231.525,75.947 199.900 C 75.976 168.275,75.936 142.400,75.858 142.400 C 75.780 142.400,75.601 143.615,75.461 145.100 M250.487 144.000 C 250.491 144.550,250.632 145.540,250.800 146.200 L 251.105 147.400 251.113 146.200 C 251.117 145.540,250.976 144.550,250.800 144.000 L 250.480 143.000 250.487 144.000 M174.582 146.982 C 174.429 148.002,174.394 148.927,174.504 149.037 C 174.614 149.147,174.829 148.402,174.982 147.382 C 175.135 146.361,175.170 145.437,175.060 145.327 C 174.950 145.217,174.735 145.961,174.582 146.982 M145.653 159.297 L 145.600 172.393 123.500 172.502 L 101.400 172.610 123.800 172.605 L 146.200 172.600 146.307 162.788 C 146.366 157.391,146.254 151.451,146.060 149.588 C 145.787 146.970,145.694 149.177,145.653 159.297 M251.287 148.400 C 251.291 148.950,251.432 149.940,251.600 150.600 L 251.905 151.800 251.913 150.600 C 251.917 149.940,251.776 148.950,251.600 148.400 L 251.280 147.400 251.287 148.400 M215.276 150.000 C 215.260 150.990,215.395 152.520,215.577 153.400 L 215.908 155.000 215.919 153.600 C 215.925 152.830,215.790 151.300,215.618 150.200 L 215.307 148.200 215.276 150.000 M209.815 151.524 C 209.650 153.132,209.608 154.541,209.722 154.655 C 210.000 154.933,210.538 149.806,210.302 149.130 C 210.200 148.839,209.981 149.916,209.815 151.524 M173.782 151.382 C 173.629 152.402,173.594 153.327,173.704 153.437 C 173.814 153.547,174.029 152.802,174.182 151.782 C 174.335 150.761,174.370 149.837,174.260 149.727 C 174.150 149.617,173.935 150.361,173.782 151.382 M30.994 200.400 C 30.994 227.130,31.042 238.065,31.100 224.700 C 31.158 211.335,31.158 189.465,31.100 176.100 C 31.042 162.735,30.994 173.670,30.994 200.400 M252.080 153.000 C 252.080 153.660,252.224 154.650,252.400 155.200 C 252.711 156.172,252.720 156.167,252.720 155.000 C 252.720 154.340,252.576 153.350,252.400 152.800 C 252.089 151.828,252.080 151.833,252.080 153.000 M172.982 155.782 C 172.829 156.802,172.802 157.735,172.922 157.855 C 173.042 157.975,173.265 157.239,173.418 156.218 C 173.571 155.198,173.598 154.265,173.478 154.145 C 173.358 154.025,173.135 154.761,172.982 155.782 M209.015 158.324 C 208.850 159.932,208.808 161.341,208.922 161.455 C 209.200 161.733,209.738 156.606,209.502 155.930 C 209.400 155.639,209.181 156.716,209.015 158.324 M216.076 157.600 C 216.060 158.590,216.195 160.120,216.377 161.000 L 216.708 162.600 216.719 161.200 C 216.725 160.430,216.590 158.900,216.418 157.800 L 216.107 155.800 216.076 157.600 M252.868 157.600 C 252.887 159.250,253.517 160.956,253.532 159.400 C 253.538 158.740,253.389 157.840,253.200 157.400 C 252.887 156.673,252.857 156.691,252.868 157.600 M172.182 160.582 C 172.029 161.602,171.994 162.527,172.104 162.637 C 172.214 162.747,172.429 162.002,172.582 160.982 C 172.735 159.961,172.770 159.037,172.660 158.927 C 172.550 158.817,172.335 159.561,172.182 160.582 M253.687 162.000 C 253.691 162.550,253.832 163.540,254.000 164.200 L 254.305 165.400 254.313 164.200 C 254.317 163.540,254.176 162.550,254.000 162.000 L 253.680 161.000 253.687 162.000 M208.220 165.318 C 208.045 166.813,208.000 168.133,208.118 168.252 C 208.411 168.544,208.922 164.295,208.708 163.353 C 208.613 162.939,208.394 163.823,208.220 165.318 M171.382 164.982 C 171.229 166.002,171.194 166.927,171.304 167.037 C 171.414 167.147,171.629 166.402,171.782 165.382 C 171.935 164.361,171.970 163.437,171.860 163.327 C 171.750 163.217,171.535 163.961,171.382 164.982 M216.873 165.200 C 216.858 166.190,216.995 167.720,217.177 168.600 L 217.508 170.200 217.524 168.600 C 217.533 167.720,217.397 166.190,217.220 165.200 L 216.900 163.400 216.873 165.200 M254.480 166.400 C 254.480 166.950,254.624 167.850,254.800 168.400 L 255.120 169.400 255.120 168.400 C 255.120 167.850,254.976 166.950,254.800 166.400 L 254.480 165.400 254.480 166.400 M170.582 169.382 C 170.429 170.402,170.402 171.335,170.522 171.455 C 170.642 171.575,170.865 170.839,171.018 169.818 C 171.171 168.798,171.198 167.865,171.078 167.745 C 170.958 167.625,170.735 168.361,170.582 169.382 M207.440 172.131 C 207.269 173.634,207.221 174.954,207.332 175.065 C 207.611 175.344,208.117 171.081,207.915 170.153 C 207.825 169.739,207.611 170.629,207.440 172.131 M255.287 170.800 C 255.291 171.350,255.432 172.340,255.600 173.000 L 255.905 174.200 255.913 173.000 C 255.917 172.340,255.776 171.350,255.600 170.800 L 255.280 169.800 255.287 170.800 M217.673 172.800 C 217.658 173.790,217.795 175.320,217.977 176.200 L 218.308 177.800 218.324 176.200 C 218.333 175.320,218.197 173.790,218.020 172.800 L 217.700 171.000 217.673 172.800 M169.782 174.182 C 169.629 175.202,169.594 176.127,169.704 176.237 C 169.814 176.347,170.029 175.602,170.182 174.582 C 170.335 173.561,170.370 172.637,170.260 172.527 C 170.150 172.417,169.935 173.161,169.782 174.182 M256.087 175.200 C 256.091 175.750,256.232 176.740,256.400 177.400 L 256.705 178.600 256.713 177.400 C 256.717 176.740,256.576 175.750,256.400 175.200 L 256.080 174.200 256.087 175.200 M206.615 179.124 C 206.450 180.732,206.408 182.141,206.522 182.255 C 206.800 182.533,207.338 177.406,207.102 176.730 C 207.000 176.439,206.781 177.516,206.615 179.124 M168.982 178.582 C 168.829 179.602,168.794 180.527,168.904 180.637 C 169.014 180.747,169.229 180.002,169.382 178.982 C 169.535 177.961,169.570 177.037,169.460 176.927 C 169.350 176.817,169.135 177.561,168.982 178.582 M218.480 180.200 C 218.468 181.080,218.603 182.610,218.780 183.600 L 219.100 185.400 219.120 183.800 C 219.132 182.920,218.997 181.390,218.820 180.400 L 218.500 178.600 218.480 180.200 M256.880 179.800 C 256.880 180.460,257.024 181.450,257.200 182.000 C 257.511 182.972,257.520 182.967,257.520 181.800 C 257.520 181.140,257.376 180.150,257.200 179.600 C 256.889 178.628,256.880 178.633,256.880 179.800 M168.182 182.982 C 168.029 184.002,168.002 184.935,168.122 185.055 C 168.242 185.175,168.465 184.439,168.618 183.418 C 168.771 182.398,168.798 181.465,168.678 181.345 C 168.558 181.225,168.335 181.961,168.182 182.982 M205.815 185.924 C 205.650 187.532,205.608 188.941,205.722 189.055 C 206.000 189.333,206.538 184.206,206.302 183.530 C 206.200 183.239,205.981 184.316,205.815 185.924 M257.668 184.400 C 257.687 186.050,258.317 187.756,258.332 186.200 C 258.338 185.540,258.189 184.640,258.000 184.200 C 257.687 183.473,257.657 183.491,257.668 184.400 M167.382 187.782 C 167.229 188.802,167.194 189.727,167.304 189.837 C 167.414 189.947,167.629 189.202,167.782 188.182 C 167.935 187.161,167.970 186.237,167.860 186.127 C 167.750 186.017,167.535 186.761,167.382 187.782 M219.330 188.400 L 219.400 191.000 212.482 191.110 C 208.112 191.179,205.653 191.363,205.806 191.610 C 206.103 192.091,218.778 192.128,219.532 191.651 C 219.955 191.382,219.982 190.753,219.662 188.557 L 219.260 185.800 219.330 188.400 M258.480 188.800 C 258.480 189.350,258.624 190.250,258.800 190.800 L 259.120 191.800 259.120 190.800 C 259.120 190.250,258.976 189.350,258.800 188.800 L 258.480 187.800 258.480 188.800 M166.582 192.182 C 166.429 193.202,166.394 194.127,166.504 194.237 C 166.614 194.347,166.829 193.602,166.982 192.582 C 167.135 191.561,167.170 190.637,167.060 190.527 C 166.950 190.417,166.735 191.161,166.582 192.182 M259.287 193.200 C 259.291 193.750,259.432 194.740,259.600 195.400 L 259.905 196.600 259.913 195.400 C 259.917 194.740,259.776 193.750,259.600 193.200 L 259.280 192.200 259.287 193.200 M165.782 196.582 C 165.629 197.602,165.602 198.535,165.722 198.655 C 165.842 198.775,166.065 198.039,166.218 197.018 C 166.371 195.998,166.398 195.065,166.278 194.945 C 166.158 194.825,165.935 195.561,165.782 196.582 M185.381 218.251 L 158.685 240.501 158.918 237.951 C 159.064 236.353,159.026 235.774,158.816 236.400 C 158.346 237.798,158.321 240.894,158.780 240.733 C 159.088 240.626,204.660 202.796,206.167 201.398 C 206.405 201.177,207.590 200.188,208.800 199.200 C 210.010 198.212,211.238 197.178,211.529 196.902 C 212.195 196.269,212.604 196.269,213.271 196.900 C 213.562 197.175,216.410 199.645,219.600 202.388 C 222.790 205.132,225.490 207.472,225.600 207.588 C 225.710 207.705,226.970 208.785,228.400 209.990 C 229.830 211.194,231.090 212.275,231.200 212.392 C 231.310 212.509,232.570 213.593,234.000 214.800 C 235.430 216.007,236.690 217.093,236.800 217.212 C 236.910 217.332,239.610 219.666,242.800 222.400 C 245.990 225.134,248.690 227.468,248.800 227.588 C 248.910 227.707,250.170 228.793,251.600 230.000 C 253.030 231.207,254.290 232.293,254.400 232.412 C 254.510 232.532,257.210 234.870,260.400 237.608 C 263.590 240.346,266.549 242.905,266.975 243.293 C 268.168 244.380,268.865 244.206,268.551 242.900 C 268.204 241.453,268.000 241.255,268.000 242.367 C 268.000 243.674,268.227 243.845,256.131 233.400 C 250.016 228.120,241.681 220.925,237.607 217.410 C 233.533 213.896,228.760 209.775,227.000 208.253 C 216.230 198.939,212.734 196.000,212.425 196.000 C 212.233 196.000,200.063 206.013,185.381 218.251 M260.087 197.600 C 260.091 198.150,260.232 199.140,260.400 199.800 L 260.705 201.000 260.713 199.800 C 260.717 199.140,260.576 198.150,260.400 197.600 L 260.080 196.600 260.087 197.600 M165.089 200.400 C 164.936 200.950,164.827 201.940,164.846 202.600 C 164.877 203.692,164.914 203.658,165.252 202.211 C 165.675 200.406,165.531 198.811,165.089 200.400 M260.887 202.000 C 260.891 202.550,261.032 203.540,261.200 204.200 L 261.505 205.400 261.513 204.200 C 261.517 203.540,261.376 202.550,261.200 202.000 L 260.880 201.000 260.887 202.000 M164.182 205.782 C 164.029 206.802,163.994 207.727,164.104 207.837 C 164.214 207.947,164.429 207.202,164.582 206.182 C 164.735 205.161,164.770 204.237,164.660 204.127 C 164.550 204.017,164.335 204.761,164.182 205.782 M166.944 242.831 C 142.115 263.529,121.348 280.854,120.796 281.331 C 120.244 281.809,118.804 283.008,117.596 283.995 C 116.388 284.981,115.310 285.884,115.200 286.000 C 115.090 286.116,114.010 287.016,112.800 288.000 C 111.590 288.984,110.510 289.884,110.400 290.000 C 110.290 290.116,109.210 291.016,108.000 292.000 C 106.790 292.984,105.710 293.884,105.600 294.000 C 105.490 294.116,104.410 295.016,103.200 296.000 C 101.990 296.984,100.910 297.888,100.800 298.008 C 100.690 298.129,99.747 298.916,98.704 299.758 C 97.661 300.601,96.907 301.449,97.028 301.645 C 97.327 302.128,323.481 302.116,323.780 301.632 C 323.905 301.430,323.511 300.875,322.904 300.400 C 322.297 299.924,321.169 298.965,320.399 298.267 C 319.628 297.570,316.388 294.755,313.199 292.012 C 310.009 289.268,307.310 286.928,307.200 286.812 C 307.090 286.695,305.830 285.615,304.400 284.410 C 302.970 283.206,301.710 282.122,301.600 282.001 C 301.490 281.879,297.530 278.462,292.800 274.406 C 288.070 270.351,284.110 266.934,284.000 266.814 C 283.890 266.693,282.630 265.607,281.200 264.400 C 279.770 263.193,278.510 262.107,278.400 261.988 C 278.290 261.868,275.590 259.534,272.400 256.800 C 269.210 254.066,266.510 251.732,266.400 251.612 C 266.290 251.493,265.030 250.407,263.600 249.200 C 262.170 247.993,260.910 246.907,260.800 246.788 C 260.690 246.668,257.990 244.334,254.800 241.600 C 251.610 238.866,248.910 236.533,248.800 236.415 C 248.690 236.297,247.430 235.215,246.000 234.010 C 244.570 232.806,243.310 231.720,243.200 231.596 C 243.090 231.472,240.390 229.134,237.200 226.400 C 234.010 223.666,231.310 221.333,231.200 221.215 C 231.090 221.097,229.830 220.015,228.400 218.810 C 226.970 217.606,225.710 216.525,225.600 216.408 C 225.490 216.291,222.790 213.949,219.600 211.204 C 216.410 208.459,213.562 205.986,213.271 205.707 C 212.981 205.428,212.596 205.200,212.416 205.200 C 212.236 205.200,191.774 222.134,166.944 242.831 M213.838 206.716 C 214.519 207.312,218.929 211.122,223.638 215.183 C 228.347 219.243,233.370 223.594,234.800 224.851 C 237.200 226.960,268.272 253.770,283.580 266.939 C 287.199 270.053,291.078 273.410,292.200 274.400 C 293.322 275.390,297.280 278.810,300.995 282.000 C 304.710 285.190,308.775 288.700,310.028 289.800 C 311.281 290.900,314.745 293.870,317.726 296.400 C 320.707 298.930,323.158 301.135,323.173 301.300 C 323.188 301.465,272.429 301.600,210.376 301.600 C 133.407 301.600,97.633 301.470,97.806 301.190 C 97.946 300.964,116.361 285.518,138.730 266.864 C 161.098 248.211,186.778 226.795,195.795 219.274 C 204.813 211.753,212.283 205.607,212.395 205.616 C 212.508 205.625,213.157 206.120,213.838 206.716 M261.668 206.800 C 261.687 208.450,262.317 210.156,262.332 208.600 C 262.338 207.940,262.189 207.040,262.000 206.600 C 261.687 205.873,261.657 205.891,261.668 206.800 M163.382 210.182 C 163.229 211.202,163.194 212.127,163.304 212.237 C 163.414 212.347,163.629 211.602,163.782 210.582 C 163.935 209.561,163.970 208.637,163.860 208.527 C 163.750 208.417,163.535 209.161,163.382 210.182 M262.468 211.200 C 262.487 212.850,263.117 214.556,263.132 213.000 C 263.138 212.340,262.989 211.440,262.800 211.000 C 262.487 210.273,262.457 210.291,262.468 211.200 M162.689 214.000 C 162.536 214.550,162.425 215.450,162.442 216.000 C 162.468 216.861,162.526 216.814,162.858 215.660 C 163.070 214.924,163.181 214.024,163.106 213.660 C 163.008 213.194,162.886 213.293,162.689 214.000 M263.287 215.600 C 263.291 216.150,263.432 217.140,263.600 217.800 L 263.905 219.000 263.913 217.800 C 263.917 217.140,263.776 216.150,263.600 215.600 L 263.280 214.600 263.287 215.600 M161.782 219.382 C 161.629 220.402,161.594 221.327,161.704 221.437 C 161.814 221.547,162.029 220.802,162.182 219.782 C 162.335 218.761,162.370 217.837,162.260 217.727 C 162.150 217.617,161.935 218.361,161.782 219.382 M264.080 220.000 C 264.080 220.550,264.224 221.450,264.400 222.000 L 264.720 223.000 264.720 222.000 C 264.720 221.450,264.576 220.550,264.400 220.000 L 264.080 219.000 264.080 220.000 M145.509 236.112 L 145.618 251.424 113.775 277.956 L 81.931 304.488 78.866 304.269 C 76.957 304.133,76.253 304.175,77.000 304.378 C 77.660 304.558,79.100 304.727,80.200 304.753 L 82.200 304.800 113.985 278.288 C 143.787 253.430,145.789 251.680,146.090 250.234 C 146.558 247.978,146.292 221.097,145.800 220.933 C 145.537 220.845,145.437 226.033,145.509 236.112 M160.982 223.782 C 160.829 224.802,160.794 225.727,160.904 225.837 C 161.014 225.947,161.229 225.202,161.382 224.182 C 161.535 223.161,161.570 222.237,161.460 222.127 C 161.350 222.017,161.135 222.761,160.982 223.782 M264.887 224.400 C 264.891 224.950,265.032 225.940,265.200 226.600 L 265.505 227.800 265.513 226.600 C 265.517 225.940,265.376 224.950,265.200 224.400 L 264.880 223.400 264.887 224.400 M160.289 227.600 C 160.136 228.150,160.025 229.050,160.042 229.600 C 160.068 230.461,160.126 230.414,160.458 229.260 C 160.670 228.524,160.781 227.624,160.706 227.260 C 160.608 226.794,160.486 226.893,160.289 227.600 M265.687 228.800 C 265.691 229.350,265.832 230.340,266.000 231.000 L 266.305 232.200 266.313 231.000 C 266.317 230.340,266.176 229.350,266.000 228.800 L 265.680 227.800 265.687 228.800 M159.382 232.982 C 159.229 234.002,159.194 234.927,159.304 235.037 C 159.414 235.147,159.629 234.402,159.782 233.382 C 159.935 232.361,159.970 231.437,159.860 231.327 C 159.750 231.217,159.535 231.961,159.382 232.982 M266.468 233.600 C 266.487 235.250,267.117 236.956,267.132 235.400 C 267.138 234.740,266.989 233.840,266.800 233.400 C 266.487 232.673,266.457 232.691,266.468 233.600 M267.268 238.000 C 267.287 239.650,267.917 241.356,267.932 239.800 C 267.938 239.140,267.789 238.240,267.600 237.800 C 267.287 237.073,267.257 237.091,267.268 238.000 M31.247 253.633 C 31.273 254.825,31.442 256.340,31.622 257.000 C 31.822 257.736,31.863 256.962,31.726 255.000 C 31.467 251.294,31.178 250.467,31.247 253.633 M101.274 253.644 C 101.233 254.438,101.111 255.968,101.002 257.044 C 100.818 258.857,100.834 258.903,101.221 257.668 C 101.451 256.935,101.574 255.405,101.494 254.268 C 101.390 252.790,101.327 252.612,101.274 253.644 M76.034 258.600 C 76.022 259.040,76.187 259.670,76.400 260.000 C 76.914 260.795,76.914 259.796,76.400 258.600 L 76.056 257.800 76.034 258.600 M32.075 259.800 C 32.065 260.460,32.211 261.360,32.400 261.800 L 32.744 262.600 32.725 261.800 C 32.714 261.360,32.568 260.460,32.400 259.800 L 32.095 258.600 32.075 259.800 M100.059 260.624 C 99.107 264.067,96.457 266.945,93.019 268.270 C 92.083 268.630,91.991 268.746,92.622 268.770 C 95.370 268.871,101.512 261.793,100.681 259.481 C 100.586 259.217,100.306 259.731,100.059 260.624 M76.810 261.120 C 76.764 263.450,82.205 268.879,84.484 268.777 C 84.768 268.764,84.100 268.338,83.000 267.829 C 80.623 266.730,79.225 265.313,77.841 262.600 C 77.280 261.500,76.816 260.834,76.810 261.120 M32.856 263.800 C 32.856 264.240,33.011 264.960,33.200 265.400 L 33.544 266.200 33.544 265.400 C 33.544 264.960,33.389 264.240,33.200 263.800 L 32.856 263.000 32.856 263.800 M33.629 266.629 C 33.588 267.233,34.857 270.876,35.044 270.690 C 35.128 270.605,34.851 269.560,34.428 268.368 C 34.005 267.176,33.645 266.393,33.629 266.629 M86.700 269.093 C 87.635 269.177,89.165 269.177,90.100 269.093 C 91.035 269.009,90.270 268.940,88.400 268.940 C 86.530 268.940,85.765 269.009,86.700 269.093 M36.018 273.439 C 35.993 274.057,37.244 276.489,37.471 276.263 C 37.574 276.160,37.293 275.384,36.847 274.538 C 36.400 273.692,36.027 273.197,36.018 273.439 M37.600 276.988 C 37.600 278.304,43.262 286.104,46.779 289.632 C 51.396 294.264,61.366 300.841,63.692 300.789 C 63.971 300.782,62.484 299.917,60.386 298.867 C 51.268 294.300,44.412 288.021,39.712 279.932 C 38.057 277.084,37.600 276.447,37.600 276.988 M65.800 301.571 C 66.680 301.994,67.760 302.341,68.200 302.342 C 68.687 302.343,68.452 302.142,67.600 301.829 C 65.122 300.918,64.153 300.779,65.800 301.571 M337.400 301.600 L 335.000 301.866 337.276 301.933 C 338.528 301.970,339.664 301.820,339.800 301.600 C 339.936 301.380,339.992 301.230,339.924 301.267 C 339.856 301.304,338.720 301.454,337.400 301.600 M69.600 302.800 C 69.930 303.013,70.560 303.178,71.000 303.166 L 71.800 303.144 71.000 302.800 C 69.804 302.286,68.805 302.286,69.600 302.800 M72.600 303.600 C 73.040 303.789,73.940 303.938,74.600 303.932 C 75.770 303.921,75.775 303.912,74.800 303.600 C 73.333 303.130,71.506 303.130,72.600 303.600 M370.311 330.293 C 371.251 330.378,372.691 330.377,373.511 330.291 C 374.330 330.205,373.560 330.136,371.800 330.137 C 370.040 330.139,369.370 330.209,370.311 330.293 M366.000 330.800 C 365.205 331.314,366.204 331.314,367.400 330.800 L 368.200 330.456 367.400 330.434 C 366.960 330.422,366.330 330.587,366.000 330.800 M377.609 331.310 C 384.276 333.583,388.919 338.662,390.573 345.488 C 390.898 346.828,391.147 347.363,391.167 346.760 C 391.367 340.512,381.833 330.337,375.847 330.410 C 375.381 330.416,376.174 330.821,377.609 331.310 M362.600 332.068 C 359.137 333.871,353.571 339.873,353.609 341.762 C 353.614 342.003,354.162 341.266,354.828 340.125 C 356.556 337.159,359.937 333.947,362.872 332.480 C 364.262 331.785,365.130 331.221,364.800 331.226 C 364.470 331.231,363.480 331.610,362.600 332.068 M367.200 334.000 C 366.436 334.494,367.258 334.494,368.800 334.000 L 369.800 333.680 368.800 333.646 C 368.250 333.627,367.530 333.787,367.200 334.000 M375.200 334.135 C 379.580 335.429,382.814 337.675,384.873 340.852 C 385.567 341.923,386.211 342.722,386.306 342.628 C 386.617 342.317,384.099 338.983,382.382 337.431 C 380.426 335.664,377.086 334.031,374.914 333.778 C 373.425 333.606,373.430 333.612,375.200 334.135 M364.809 334.846 C 362.074 335.937,356.045 342.178,356.899 343.033 C 357.027 343.160,357.417 342.665,357.767 341.932 C 358.885 339.586,361.957 336.750,365.054 335.204 C 366.672 334.396,366.514 334.166,364.809 334.846 M363.999 337.500 C 363.999 337.665,365.574 337.752,367.499 337.693 C 373.713 337.503,374.324 337.341,369.100 337.270 C 366.295 337.231,364.000 337.335,363.999 337.500 M376.006 338.500 C 378.397 339.712,379.399 341.511,379.358 344.521 C 379.339 345.886,379.463 346.628,379.657 346.321 C 381.311 343.713,377.861 337.600,374.735 337.600 C 374.458 337.600,375.030 338.005,376.006 338.500 M367.043 339.833 C 366.909 340.181,366.800 342.236,366.800 344.400 C 366.800 349.660,366.767 349.602,369.743 349.591 C 374.839 349.573,378.508 345.709,376.473 342.504 C 376.299 342.230,376.167 343.007,376.179 344.236 C 376.207 347.159,374.800 348.592,371.501 349.005 C 367.299 349.530,367.416 349.655,367.287 344.500 L 367.174 340.000 370.425 340.000 C 373.119 340.000,373.893 340.150,374.938 340.876 L 376.200 341.751 375.440 340.878 C 374.018 339.244,367.576 338.442,367.043 339.833 M386.626 344.000 C 387.502 347.738,387.634 348.908,387.458 351.400 C 387.291 353.758,387.325 353.979,387.672 352.800 C 388.223 350.926,387.869 346.138,387.051 344.400 C 386.610 343.463,386.469 343.331,386.626 344.000 M356.200 344.400 C 356.050 344.873,356.017 345.350,356.127 345.460 C 356.237 345.570,356.450 345.273,356.600 344.800 C 356.750 344.327,356.783 343.850,356.673 343.740 C 356.563 343.630,356.350 343.927,356.200 344.400 M352.252 345.700 C 351.929 346.906,351.986 353.223,352.328 354.085 C 352.478 354.462,352.600 352.527,352.600 349.785 C 352.600 344.356,352.603 344.391,352.252 345.700 M355.385 348.182 C 355.235 349.383,355.293 351.048,355.515 351.882 C 355.870 353.221,355.922 352.964,355.959 349.700 C 356.005 345.525,355.789 344.952,355.385 348.182 M377.600 348.934 C 376.619 350.051,376.453 350.395,377.043 350.081 C 377.833 349.661,379.423 347.646,379.132 347.435 C 379.059 347.382,378.370 348.056,377.600 348.934 M374.700 350.832 C 373.614 351.464,373.790 351.845,377.064 355.954 C 378.749 358.069,380.301 360.025,380.513 360.300 C 380.806 360.680,380.528 360.798,379.349 360.790 C 377.870 360.781,377.664 360.606,374.800 356.945 C 370.901 351.960,370.110 351.200,368.825 351.200 C 367.031 351.200,366.800 351.808,366.800 356.524 L 366.800 360.888 365.393 360.723 C 364.522 360.622,364.040 360.719,364.127 360.980 C 364.204 361.211,364.882 361.400,365.633 361.400 L 367.000 361.400 367.113 356.700 L 367.225 352.000 368.791 352.000 C 370.421 352.000,370.346 351.932,374.525 357.200 C 377.924 361.484,378.059 361.600,379.648 361.600 C 381.846 361.600,381.687 361.139,377.800 356.235 C 374.331 351.858,373.962 351.200,374.976 351.200 C 375.293 351.200,375.664 351.020,375.800 350.800 C 376.114 350.291,375.603 350.306,374.700 350.832 M390.854 352.600 C 390.819 353.040,390.689 353.850,390.567 354.400 C 390.375 355.263,390.407 355.303,390.798 354.690 C 391.047 354.299,391.177 353.489,391.086 352.890 C 390.978 352.179,390.897 352.079,390.854 352.600 M356.019 354.144 C 355.964 356.331,362.055 364.062,363.768 363.979 C 364.006 363.967,363.757 363.652,363.217 363.279 C 360.171 361.176,358.044 358.529,356.756 355.237 C 356.361 354.227,356.029 353.735,356.019 354.144 M385.873 356.783 C 384.645 359.384,381.494 362.589,379.004 363.771 C 378.196 364.155,377.635 364.568,377.756 364.690 C 379.061 365.995,387.785 356.755,387.123 354.769 C 387.055 354.565,386.493 355.472,385.873 356.783 M352.814 355.542 C 352.705 359.680,362.415 368.914,366.733 368.779 C 367.100 368.768,366.410 368.382,365.200 367.923 C 360.196 366.022,356.410 362.552,354.156 357.800 C 353.426 356.260,352.822 355.244,352.814 355.542 M388.917 358.377 C 387.370 361.637,384.210 364.935,380.933 366.713 C 379.650 367.409,378.815 367.983,379.077 367.989 C 381.665 368.047,388.257 361.577,389.980 357.287 C 390.942 354.892,390.221 355.632,388.917 358.377 M364.600 364.293 C 365.116 364.823,367.989 365.745,368.264 365.469 C 368.380 365.353,367.873 365.085,367.138 364.873 C 366.402 364.660,365.440 364.351,365.000 364.185 C 364.456 363.979,364.328 364.014,364.600 364.293 M375.400 365.200 L 374.600 365.544 375.400 365.566 C 375.840 365.578,376.470 365.413,376.800 365.200 C 377.595 364.686,376.596 364.686,375.400 365.200 M370.300 365.889 C 371.015 365.978,372.185 365.978,372.900 365.889 C 373.615 365.801,373.030 365.728,371.600 365.728 C 370.170 365.728,369.585 365.801,370.300 365.889 M376.800 368.400 C 375.976 368.664,375.941 368.726,376.600 368.754 C 377.040 368.773,377.670 368.613,378.000 368.400 C 378.701 367.947,378.214 367.947,376.800 368.400 M368.400 369.240 C 369.730 369.613,374.008 369.619,374.947 369.250 C 375.358 369.089,373.828 368.957,371.547 368.958 C 369.266 368.959,367.850 369.086,368.400 369.240 " stroke="none" fill="#7c7c1c" fill-rule="evenodd"></path></g></svg>